<svg xmlns="http://www.w3.org/2000/svg" viewBox="7 9 48 41"><path d="M47.22 24.86a7.4 7.4 0 0 0-1 14.73v-2a5.4 5.4 0 1 1 2 0v2a7.4 7.4 0 0 0-1-14.73ZM13.21 9.8h5v5h-5zm11.48 0h5v5h-5z" fill="currentcolor" opacity=".75"/><path d="M50.22 32.26a3 3 0 1 0-4 2.82v12.86H25.89a3.44 3.44 0 0 1-3.43-3.43v-5.28A12.94 12.94 0 0 0 35.43 26.3V16.1a4.81 4.81 0 0 0-4.8-4.8h-.88v2h.88a2.81 2.81 0 0 1 2.8 2.8v10.2A11 11 0 0 1 22.5 37.23h-2.07A10.94 10.94 0 0 1 9.5 26.3V16.1a2.8 2.8 0 0 1 2.8-2.8h.88v-2h-.88a4.8 4.8 0 0 0-4.8 4.8v10.2a12.94 12.94 0 0 0 12.93 12.93v5.28a5.44 5.44 0 0 0 5.43 5.43h22.36V35.08a3 3 0 0 0 2-2.82Z" fill="currentcolor"/></svg>