<svg xmlns="http://www.w3.org/2000/svg" viewBox="13 11 34 39"><path fill="currentcolor" d="M14.25 30.25h12.61v19.6H14.25z"/><path fill="currentcolor" opacity=".5" d="M26.87 30.25h6.27v19.6h-6.27z"/><path fill="currentcolor" d="M33.13 30.25h12.61v19.6H33.13z"/><path d="M19.62 21.61a23.51 23.51 0 0 0 2.4.13H38a23.33 23.33 0 0 0 2.39-.13A5.79 5.79 0 0 0 46 15.45a4.57 4.57 0 0 0-1.34-3.14A4.69 4.69 0 0 0 41 11.12c-3.33.15-6.71 4.47-8.2 6.63a3.12 3.12 0 0 0-5.64 0c-1.49-2.16-4.88-6.49-8.2-6.64a4.68 4.68 0 0 0-3.64 1.19 4.56 4.56 0 0 0-1.33 3 5.82 5.82 0 0 0 5.63 6.31Zm21.52-7.87a2.24 2.24 0 0 1 1.68.45 2.08 2.08 0 0 1 .55 1.37c0 .52.07 3.09-3.26 3.44a16.22 16.22 0 0 1-4.87-.14c1.76-2.41 4.23-5.04 5.9-5.12Zm-24.51 1.72a2 2 0 0 1 .54-1.27 2.1 2.1 0 0 1 1.47-.45h.21c1.67.08 4.17 2.71 5.9 5.12a16.17 16.17 0 0 1-4.86.14c-3.34-.35-3.31-2.92-3.26-3.54Z" fill="currentcolor" opacity=".5"/><path fill="currentcolor" d="M26.87 24.25H13.01v3.58h13.86v-3.58zm20.12 0H33.13v3.58h13.86v-3.58z"/><path fill="currentcolor" opacity=".5" d="M33.13 27.83v-3.58h-6.26v3.58h6.26z"/></svg>