<svg xmlns="http://www.w3.org/2000/svg" viewBox="9 15 42 30"><path d="M45.48 42V15.84H9.31V42a2.56 2.56 0 0 0 2.56 2.56H48A2.56 2.56 0 0 1 45.48 42ZM12.09 18.6h30.22v4.27H12.09Zm20.42 18.22V35.4h9.8v1.42Zm9.8 1.1v1.42h-9.8v-1.42Zm-9.8-3.62v-1.42h9.8v1.42Zm0-2.52v-1.42h9.8v1.42Zm0-2.52v-1.42h9.8v1.42Zm0-4h9.8v1.41h-9.8ZM13.16 44a2.56 2.56 0 0 1-1.07-1.95v-7.96L12 25.31h18.55l.05 15.3V42a2.71 2.71 0 0 0 .75 1.81l.13.11.15.13Zm19.35-3.6h9.8v1.42h-9.8Zm1 3.6-.16-.13-.13-.11a2.72 2.72 0 0 1-.53-.84h9.81a2.52 2.52 0 0 0 .94 1.08Z" fill="currentcolor"/><path d="M45.37 20.54v21.32a2.89 2.89 0 0 0 .79 1.88l.13.11a2.39 2.39 0 0 0 .26.21l.21.12.24.13.25.08.25.08h.53a2.67 2.67 0 0 0 2.66-2.66V20.54ZM13.16 44a2.56 2.56 0 0 1-1.07-1.95v-7.96L12 25.31h18.55l.05 15.3V42a2.71 2.71 0 0 0 .75 1.81l.13.11.15.13Z" fill="currentcolor" opacity=".5"/></svg>