<svg xmlns="http://www.w3.org/2000/svg" viewBox="14 6 32 47"><path d="m22.22 35.8 1.55 3 .11.2.21-.09 4.95-2v16l-3.23-3.24-.18-.18-.18.18-3.23 3.23V35.8" fill="currentcolor"/><path d="M37.79 35.8v14.37l-3.24-3.33-.18-.19-.18.19L31 50.17V36.85l4.95 2 .21.09.11-.2 1.56-3" fill="currentcolor" opacity=".75"/><path d="M42.06 24.27v-.09l3-4.69-4.38-3.41-.08-.08v-.1l-.75-5.5-5.55.21h-.1l-.08-.07L30 6.84l-4.11 3.73-.08.07h-.1l-5.55-.21-.75 5.5V16l-.09.06-4.38 3.41 3 4.69.05.09v.1l-1.25 5.45L22 31.49h.1l.05.09 2.58 4.92 5.15-2.1h.18l5.14 2.1 2.59-4.92v-.09h.1l5.29-1.69L42 24.37Zm-12 6.4a8.4 8.4 0 1 1 8.4-8.4 8.41 8.41 0 0 1-8.46 8.4Z" fill="currentcolor"/><path d="M30 13.87a8.4 8.4 0 1 1-8.4 8.4 8.41 8.41 0 0 1 8.4-8.4" fill="currentcolor" opacity=".25"/></svg>