<svg xmlns="http://www.w3.org/2000/svg" viewBox="13 19 35 22"><path fill="currentcolor" d="M25.46 27.89H17.9v-7.73h-4.43v19.97h4.43v-8.51h7.56v8.51h4.42V20.16h-4.42v7.73zm13.21 8.48L41.16 34a36.82 36.82 0 0 0 3.56-3.59 10.19 10.19 0 0 0 1.5-2.48 7 7 0 0 0 .49-2.6 5.13 5.13 0 0 0-.81-2.85 5.33 5.33 0 0 0-2.25-1.93 7.71 7.71 0 0 0-3.31-.68 10.71 10.71 0 0 0-2.57.28 8.68 8.68 0 0 0-2.12.8 14.52 14.52 0 0 0-2.43 1.76l-.1.08 2.35 2.78.08.1.09-.08a11 11 0 0 1 2.23-1.48A5 5 0 0 1 40 23.6a2.44 2.44 0 0 1 1.66.55 2.14 2.14 0 0 1 .62 1.68 4 4 0 0 1-.28 1.49 6.48 6.48 0 0 1-1 1.58c-.44.57-1.4 1.62-2.86 3.11l-5 5v3.08h14v-3.72Z"/></svg>