<?xml version="1.0" encoding="utf-8"?><svg xmlns="http://www.w3.org/2000/svg" xmlns:xlink="http://www.w3.org/1999/xlink"><svg id="add-box" xmlns="http://www.w3.org/2000/svg" viewBox="8 10 43 39"><path d="m43.66 12.87 3.74 9.77H12.67l3.74-9.77h27.25m1.72-2.5H14.69L9 25.14h42l-5.62-14.77Z" fill="currentcolor" opacity=".75"/><path fill="currentcolor" opacity=".25" d="m43.66 12.87 3.74 9.77H12.67l3.74-9.77h27.25"/><path d="m9 25.14 2.52 23h37.7l1.78-23Zm28.33 13h-5.78v5.74h-3.11v-5.69h-5.77v-3.1h5.77v-5.74h3.11v5.74h5.78Z" fill="currentcolor"/></svg><svg id="add-file" xmlns="http://www.w3.org/2000/svg" viewBox="13 7 33 44"><path fill="currentcolor" opacity=".5" d="M24.05 7.25 13.84 18.99h10.21V7.25z"/><path d="M24.05 7.25V19H13.84v31.92h31.85V7.25Zm16.83 28.49h-9.26V45h-3.71v-9.26h-9.27V32h9.27v-9.23h3.71V32h9.26Z" fill="currentcolor"/></svg><svg id="aircraft" xmlns="http://www.w3.org/2000/svg" viewBox="10 10 40 40"><path fill="currentcolor" d="m41.3 13.7-5.8 5.8-20.2-4.7c-1.4-.3-2.9.1-4 1.1L10.2 17 29 26.1 18.7 38.6l-4.4-.4c-.6-.1-1.2.2-1.6.6l-.8.8 4.9 3.5 3.5 4.9.8-.8c.4-.4.6-1 .6-1.6l-.4-4.4L33.9 31l8.9 18.7 1.1-1.1c1-1 1.5-2.6 1.1-4l-4.7-20.2 5.9-5.9c.5-.5 1-1.1 1.3-1.8 1-1.8 2.8-5.4 1.8-6.3-.9-.9-4.5.8-6.3 1.8-.5.5-1.1.9-1.7 1.5z"/></svg><svg id="archive" xmlns="http://www.w3.org/2000/svg" viewBox="10 12 40 36"><path fill="currentcolor" opacity=".5" d="M49.59 12.05H25.52l-15.11 8.83h27.03v27.07l12.15-8.78V12.05z"/><path d="M10.48 20.88v27h27v-27Zm22.68 22.23H14.49v-3h18.67Zm0-6.93H14.49v-3h18.67Zm0-6.94H14.49v-3h18.67Z" fill="currentcolor"/></svg><svg id="arrow-clockwise" xmlns="http://www.w3.org/2000/svg" viewBox="13 7 34 42"><path d="m29.56 15.3 5.53-.1-4.59-4.59 3.25-3.25 10.47 10.47-10.53 10.52-3.25-3.25 4.61-4.61-5 .1A11.34 11.34 0 1 0 40.66 28l4-4a17.53 17.53 0 0 1 2 8 16.67 16.67 0 1 1-17.1-16.7Z" fill="currentcolor"/></svg><svg id="arrow-counterclockwise" xmlns="http://www.w3.org/2000/svg" viewBox="13 7 34 42"><path d="m30.44 15.3-5.53-.1 4.59-4.59-3.25-3.25-10.47 10.47 10.53 10.52 3.25-3.25L25 20.49l5.05.1A11.34 11.34 0 1 1 19.34 28l-4-4a17.53 17.53 0 0 0-2 8 16.67 16.67 0 1 0 17.1-16.7Z" fill="currentcolor"/></svg><svg id="arrow-down" xmlns="http://www.w3.org/2000/svg" viewBox="13 10 34 40"><path d="M30 49.35 13.54 32.89l4.59-4.59 8.19 8.19.43.42V10.65h6.5v26.26l.43-.42 8.19-8.19 4.59 4.59L30 49.35" fill="currentcolor"/></svg><svg id="arrow-left-right" xmlns="http://www.w3.org/2000/svg" viewBox="9 11 42 38"><path fill="currentcolor" d="m41.5 11.6-2.6 2.7 5 5H9.2v3.8h34.3l-4.6 4.6 2.7 2.6 9.2-9.3zm-23 36.8 2.6-2.7-5-5h34.7v-3.8H16.5l4.6-4.6-2.7-2.6L9.2 39z"/></svg><svg id="arrow-left" xmlns="http://www.w3.org/2000/svg" viewBox="10 13 40 34"><path d="m10.65 30 16.46-16.46 4.59 4.59-8.19 8.19-.42.43h26.26v6.5H23.09l.42.43 8.19 8.19-4.59 4.59L10.65 30" fill="currentcolor"/></svg><svg id="arrow-repeat" xmlns="http://www.w3.org/2000/svg" viewBox="14 6 32 48"><path d="m33.67 33.32-2.9 3.26 4.61 4.11-4.79.18a9.57 9.57 0 0 1-1.07 0h-.06c-.33 0-.66-.05-1-.1h-.15c-.29 0-.58-.1-.87-.17l-.22-.06c-.25-.06-.5-.14-.75-.22l-.3-.11c-.22-.09-.43-.17-.64-.27l-.38-.18c-.17-.09-.34-.17-.5-.27l-.47-.28-.34-.21c-.19-.13-.37-.27-.55-.41l-.23-.19-.61-.55-.11-.11c-.22-.23-.44-.46-.65-.71a10.73 10.73 0 0 1-1.8-10.63l-3.81-3.81a16.58 16.58 0 0 0-1.89 7.54v.89a15.71 15.71 0 0 0 1.24 5.25c.19.45.4.88.63 1.31l.06.11q.33.59.69 1.14l.15.22c.22.32.46.63.7.93.09.12.18.23.28.34s.43.49.65.72l.45.45c.18.17.37.35.57.52l.64.53.45.33c.28.2.56.4.85.58l.31.19c.35.21.71.41 1.07.59l.16.08c.42.2.85.39 1.29.56a15.83 15.83 0 0 0 5.61 1h.46l5.25-.2-4.1 4.59 3.26 2.91 9.34-10.49Zm12.14-3.19v-1.08c0-.3 0-.6-.08-.89l-.09-.6c-.06-.34-.13-.68-.2-1l-.12-.44a10.86 10.86 0 0 0-.38-1.12c0-.1-.07-.21-.11-.31-.15-.4-.31-.78-.48-1.16a2 2 0 0 1-.1-.21c-.2-.41-.41-.81-.64-1.19a.41.41 0 0 0-.07-.11 10.88 10.88 0 0 0-.8-1.2 15.76 15.76 0 0 0-12.3-6.44l-5.25-.1 4.35-4.35-3.1-3.13-9.93 9.94 10 10 3.08-3.09-4.37-4.37 4.34.08v.06a10.8 10.8 0 0 1 10.59 7.11.14.14 0 0 0 0 .06 8 8 0 0 1 .26.87l.06.21c.06.25.1.5.14.75s.05.25.06.38 0 .4.06.6 0 .4 0 .6a10.67 10.67 0 0 1-.51 3.5l4 3.64a16.54 16.54 0 0 0 1.57-7Z" fill="currentcolor"/></svg><svg id="arrow-right" xmlns="http://www.w3.org/2000/svg" viewBox="10 13 40 34"><path d="M49.35 30 32.89 46.46l-4.59-4.59 8.19-8.19.42-.43H10.65v-6.5h26.26l-.42-.43-8.19-8.19 4.59-4.59L49.35 30" fill="currentcolor"/></svg><svg id="arrow-up" xmlns="http://www.w3.org/2000/svg" viewBox="13 10 34 40"><path d="m30 10.65 16.46 16.46-4.59 4.59-8.19-8.19-.43-.42v26.26h-6.5V23.09l-.43.42-8.19 8.19-4.59-4.59L30 10.65" fill="currentcolor"/></svg><svg id="audio-file" xmlns="http://www.w3.org/2000/svg" viewBox="14 8 32 44"><path fill="currentcolor" opacity=".5" d="M24.36 8.15 14.14 19.89h10.22V8.15z"/><path d="M24.36 8.15v11.74H14.14v31.93H46V8.15ZM38 36.69v.17c0 1.68-1.69 3-3.77 3s-3.77-1.37-3.77-3 1.68-3 3.77-3a4.42 4.42 0 0 1 2.27.62v-9l-9.95 4.48v10.45c0 1.68-1.69 3-3.77 3S19 42.13 19 40.45s1.69-3.05 3.77-3.05a4.33 4.33 0 0 1 2.3.64V25.48L38 19.7Z" fill="currentcolor"/></svg><svg id="audio" xmlns="http://www.w3.org/2000/svg" viewBox="12 10 32 40"><path d="m43.76 10.85-21 9.39v20.39a7.08 7.08 0 0 0-3.73-1c-3.38 0-6.12 2.22-6.12 4.95s2.74 4.94 6.12 4.94 6.13-2.21 6.13-4.94V27.51l16.16-7.28v14.55a7.09 7.09 0 0 0-3.69-1c-3.38 0-6.13 2.22-6.13 4.95s2.75 5 6.13 5 6.12-2.22 6.12-5v-.27Z" fill="currentcolor"/></svg><svg id="basket" xmlns="http://www.w3.org/2000/svg" viewBox="9 9 42 39"><path d="M28.2 12.32a1.62 1.62 0 1 0-3-1.1l-4.58 12.53h3.44Zm6.64-1.1a1.62 1.62 0 1 0-3 1.1l4.14 11.43h3.44Z" fill="currentcolor" opacity=".75"/><path d="M39.16 23.75H9.5V30h1.9l4 17.87h29.16L48.6 30h1.9v-6.25ZM21.9 44.32h-2.72L17 30h2.79L22 44.32Zm6.34 0h-2.71L24.67 30h2.75l.86 14.35Zm6.23 0h-2.75L32.58 30h2.75Zm6.35 0H38L40.25 30H43Z" fill="currentcolor"/></svg><svg id="bell" xmlns="http://www.w3.org/2000/svg" viewBox="11 10 38 40"><path d="M47.28 37.75s-3.66-3.12-4.64-7.07S39.94 18 39.94 18a28.52 28.52 0 0 0-7.19-4.32V13a2.75 2.75 0 0 0-5.5 0v.65A28.41 28.41 0 0 0 20.06 18s-1.72 8.76-2.7 12.72-4.64 7.07-4.64 7.07l-.91 4.46h36.38ZM30 49.77a5.82 5.82 0 0 0 5.62-4.35H24.38A5.82 5.82 0 0 0 30 49.77Z" fill="currentcolor"/></svg><svg id="billing-file" xmlns="http://www.w3.org/2000/svg" viewBox="14 8 32 44"><path fill="currentcolor" opacity=".5" d="M24.29 8.17 14.07 19.91h10.22V8.17z"/><path d="M24.29 8.17v11.74H14.07v31.92h31.86V8.17Zm7.44 34.61c-4.47 0-7.3-2.19-8.67-6.7L23 36h-2v-2.65h1.56v-1.03c0-.31 0-.76.05-1.15v-.11H21v-2.65h2.09v-.08c1.43-4.51 4.29-6.7 8.75-6.7a12.07 12.07 0 0 1 5.07 1L35.77 25a9.43 9.43 0 0 0-3.91-.76c-3.47 0-4.88 1.59-5.93 4l-.06.15h6.77v2.65h-7.4v.09c0 .44-.06.81-.06 1.17v1.03h7.42V36h-6.79l.06.15c1.12 2.62 2.4 4 5.86 4a10.64 10.64 0 0 0 4.11-.77L37 41.75a13.2 13.2 0 0 1-5.27 1.03Z" fill="currentcolor"/></svg><svg id="billing" xmlns="http://www.w3.org/2000/svg" viewBox="14 12 28 36"><path d="M14.5 36.41h3.43v.13c2.31 7.61 7.1 11.31 14.63 11.31a22.16 22.16 0 0 0 8.9-1.74l-2-4a18.05 18.05 0 0 1-6.94 1.29c-5.84 0-8.17-2.68-9.88-6.71l-.1-.25h11.6v-4.51H21.61v-.16c0-.52-.06-1.05-.06-1.57s0-1.24.1-2v-.16h12.49v-4.45H22.71l.11-.25c1.77-4 4.15-6.71 10-6.71a15.81 15.81 0 0 1 6.59 1.29l2-4a20.36 20.36 0 0 0-8.55-1.75c-7.53 0-12.36 3.71-14.77 11.32v.12H14.5v4.48h2.65v.19c-.05.66-.08 1.3-.08 1.94s0 1 .07 1.54v.19H14.5Z" fill="currentcolor"/></svg><svg id="book" xmlns="http://www.w3.org/2000/svg" viewBox="13 9 34 42"><g fill="currentcolor"><path opacity=".5" d="M20.5 17.4h19.4v2.9H20.5z"/><path d="M17.3 9.2c-1.7 0-3.6 1.3-3.7 3v34.7c0 2.5 2.2 3.9 4.5 3.9h28.2V9.2h-29zm3.2 8.2h19.4v2.8H20.5v-2.8zm2.8 7.1v-2.2h14v2.2h-14zm22 25.2H17.6c-1.5-.1-2.8-1.1-2.8-2.2s1.2-2.1 2.8-2.2h27.7v4.4z"/><path opacity=".5" d="M23.3 22.4h14v2.2h-14z"/></g></svg><svg id="box-arrow-up-right" xmlns="http://www.w3.org/2000/svg" viewBox="13 10 37 37"><path fill="currentcolor" d="m49.71 28.09-.01-13.47v-3.8h-5.36v.01H32.35v5.36h8.19L26.08 30.65l3.8 3.8 14.46-14.47v8.11h5.37z"/><path fill="currentcolor" d="M41.51 31.98v10.58H17.32V18.37h10.94v-3.51H13.62v31.4h31.56V31.98h-3.67z"/></svg><svg id="box" xmlns="http://www.w3.org/2000/svg" viewBox="9 11 43 39"><path opacity=".75" fill="currentcolor" d="m44.2 14.3 3.7 9.8H13.2l3.7-9.8h27.3m1.7-2.5H15.2L9.6 26.6h42l-5.7-14.8z"/><path opacity=".25" fill="#FFF" d="m44.2 14.3 3.7 9.8H13.2l3.8-9.8h27.2"/><path fill="currentcolor" d="m9.5 26.6 2.5 23h37.7l1.8-23h-42z"/></svg><svg id="briefcase" xmlns="http://www.w3.org/2000/svg" viewBox="9 13 41 32"><path fill="currentcolor" d="M33.24 32.77v2.12h-6.48v-2.02L10.9 27.99v16.44h38.01V27.99l-15.67 4.78z"/><path d="M37.8 19.2v-5.63H22v5.63H10v5.7l17.14 5.28h5.41L50 24.9v-5.7Zm-2 0H24v-3.65h11.81Z" fill="currentcolor"/></svg><svg id="bug" xmlns="http://www.w3.org/2000/svg" viewBox="9 9 45 45"><path fill="currentcolor" d="M23.6 13.6c0 .4-.2.8-.5 1.1-.7.7-1.8.7-2.5 0-.5-.5-.6-1.2-.4-1.8-1.1.1-2.1.6-3 1.5l-2.5 2.5c-.8.8-1.3 1.9-1.5 3 .6-.2 1.3 0 1.8.4.7.7.7 1.8 0 2.5-.3.3-.7.5-1.1.5.2.4.5.7.8 1 .1.1.4.1.5 0l9.4-9.4c.1-.1.1-.4 0-.5-.3-.4-.6-.6-1-.8z"/><path opacity=".25" fill="currentcolor" d="M20.6 14.6c.7.7 1.8.7 2.5 0 .3-.3.5-.7.5-1.1-1-.6-2.3-.9-3.4-.7-.2.7 0 1.3.4 1.8zM15 20.2c-.5-.5-1.2-.6-1.8-.4-.2 1.2.1 2.4.7 3.4.4 0 .8-.2 1.1-.5.7-.7.7-1.8 0-2.5z"/><path fill="currentcolor" d="M21.2 38.9c-.6-.6-1.2-1.3-1.8-1.9l-2.1 3.5-.3 5.7c-.1 1 .7 1.8 1.7 1.9 1 .1 1.8-.7 1.9-1.7l.3-4.9 1.1-2c-.2-.1-.5-.3-.8-.6zm5.6 3.4-1 2.8L28 52c.3.9 1.3 1.5 2.2 1.2.9-.3 1.5-1.3 1.2-2.2l-1.8-5.8.6-1.8c-1.1-.3-2.3-.6-3.4-1.1zm25.5-14.6-6.9-2.2-2.7.9c.4 1.1.8 2.2 1 3.4l1.7-.6 5.8 1.8c.9.3 1.9-.2 2.2-1.2.4-.8-.1-1.8-1.1-2.1zm-6.5-11.5-5.1.9-3.4 2c.7.6 1.3 1.1 1.9 1.8.3.3.5.6.7.8l2-1.2 4.4-.8c1-.2 1.6-1.1 1.4-2.1 0-1-.9-1.6-1.9-1.4z"/><path fill="currentcolor" d="m44.1 32.6-.7.7c-2.4 2.4-6.4 2.4-8.8 0l-7.2-7.2c4.6-4.6 6.4-7.4 7-9-.4-.2-.9-.5-1.3-.7l1.1-2 4.8-2c.9-.4 1.3-1.4.9-2.3-.4-.9-1.4-1.3-2.3-.9l-6 2.5-1.9 3.5c-.1 0-.2-.1-.3-.1-1.7-.5-3.7.1-5 1.4L16.8 24c-1.3 1.3-1.9 3.3-1.4 5 0 .1.1.2.1.3L12 31.2l-2.5 6c-.4.9 0 2 .9 2.3.9.4 2 0 2.3-.9l2-4.8 2-1.1c.2.4.4.9.7 1.3 1.6-.6 4.4-2.3 9-7l7.2 7.2c2.4 2.4 2.4 6.4 0 8.8l-.6.7c1.4.1 2.8.1 4.3-.1 3.5-.4 6.4-3.3 6.8-6.8.1-1.4.1-2.8 0-4.2z"/><path opacity=".75" fill="currentcolor" d="M33.7 34.2 26.5 27c-4.6 4.6-7.4 6.4-9 7 1 1.8 2.3 3.5 3.8 4.9.3.3.6.5.9.7 3 2.4 6.8 3.8 10.8 4.1l.7-.7c2.4-2.4 2.4-6.3 0-8.8zm5.6-13.4c-1.4-1.5-3.1-2.8-4.9-3.8-.6 1.6-2.3 4.4-7 9l7.2 7.2c2.4 2.4 6.4 2.4 8.8 0l.7-.7c-.3-4-1.7-7.8-4.1-10.9-.2-.2-.4-.5-.7-.8z"/></svg><svg id="calendar-check" xmlns="http://www.w3.org/2000/svg" viewBox="10 10 40 38"><path fill="currentcolor" opacity=".5" d="M42.49 13.33v-3.26h-4v3.26H21.51v-3.26h-4v3.26h-6.58v8.63h38.14v-8.63h-6.58z"/><path d="M10.93 22v26h38.14V22ZM29 40.7l-.83.82L26.65 43l-2.38-2.26-4.9-4.66 2.33-2.31 4.9 4.66 11.65-11.55 2.38 2.26L29 40.7Z" fill="currentcolor"/></svg><svg id="calendar-event" xmlns="http://www.w3.org/2000/svg" viewBox="10 10 40 38"><path fill="currentcolor" opacity=".5" d="M42.49 13.33v-3.26h-4v3.26H21.51v-3.26h-4v3.26h-6.58v8.63h38.14v-8.63h-6.58z"/><path d="M10.93 22v26h38.14V22Zm35.55 11.73L45 35.23l-3.74-3.74-3.73 3.74-1.53-1.5L39.76 30 36 26.27l1.5-1.5 3.73 3.74L45 24.77l1.49 1.5L42.75 30Z" fill="currentcolor"/></svg><svg id="calendar-x" xmlns="http://www.w3.org/2000/svg" viewBox="10 10 40 38"><path fill="currentcolor" opacity=".5" d="M42.49 13.33v-3.26h-4v3.26H21.51v-3.26h-4v3.26h-6.58v8.63h38.14v-8.63h-6.58z"/><path d="M10.93 22v26h38.14V22ZM38 40.66 35.71 43 30 37.23 24.29 43 22 40.66 27.71 35 22 29.23 24.29 27 30 32.66 35.71 27 38 29.23 32.29 35Z" fill="currentcolor"/></svg><svg id="calendar" xmlns="http://www.w3.org/2000/svg" viewBox="10 9 40 39"><path fill="currentcolor" opacity=".5" d="M42.49 13.15V9.89h-4v3.26H21.51V9.89h-4v3.26h-6.58v8.64h38.14v-8.64h-6.58z"/><path d="M10.93 21.79v26h38.14v-26Zm13.81 18.83a7.23 7.23 0 0 1-3.66-.88l.59-2.16a6.87 6.87 0 0 0 2.86.76c1.5 0 2.27-.73 2.27-1.66 0-1.21-1.22-1.76-2.49-1.76h-1.18v-2.07h1.12c1 0 2.2-.38 2.2-1.43 0-.74-.6-1.29-1.82-1.29a5.65 5.65 0 0 0-2.58.74l-.59-2.09a7.77 7.77 0 0 1 3.81-.93c2.65 0 4.11 1.39 4.11 3.08a3 3 0 0 1-2.26 2.87 3.08 3.08 0 0 1 2.68 3c0 2.2-1.92 3.82-5.06 3.82Zm13.44-.21h-2.8v-9.79L33 31.74l-.48-2.16 3.27-1.52h2.4Z" fill="currentcolor"/></svg><svg id="cart" xmlns="http://www.w3.org/2000/svg" viewBox="6 11 48 41"><path fill="currentcolor" d="m48.3 31.8-14.1 8.1-6.5-11.4 14.1-8.1 6.5 11.4z" opacity=".75"/><circle opacity=".25" fill="currentcolor" cx="26.8" cy="47" r="2.4"/><path fill="currentcolor" d="m32.5 46.3 21.3-12.1-1.4-2.5-18.9 10.7L16 11.6H6.7l-.1 2.9h7.7l11 19.4v9c-.2.1-.5.2-.7.3-2.1 1.2-2.8 3.8-1.6 5.9.8 1.4 2.3 2.2 3.8 2.2.7 0 1.5-.2 2.1-.6 2.1-1.2 2.8-3.8 1.6-5.9-.5-.9-1.4-1.6-2.3-1.9V39l4.3 7.3zm-3.6-.5c.3.6.4 1.2.2 1.8-.2.6-.6 1.1-1.1 1.5-.4.2-.8.3-1.2.3-.9 0-1.7-.5-2.1-1.2-.7-1.2-.3-2.6.9-3.3.4-.2.8-.3 1.2-.3.9-.1 1.7.4 2.1 1.2z"/></svg><svg id="categories-box" xmlns="http://www.w3.org/2000/svg" viewBox="8 11 43 38"><path d="m43.66 13.62 3.74 9.76H12.67l3.74-9.76h27.25m1.72-2.5H14.69L9 25.88h42l-5.62-14.76Z" fill="currentcolor" opacity=".75"/><path fill="currentcolor" opacity=".25" d="m43.66 13.62 3.74 9.76H12.67l3.74-9.76h27.25"/><path d="m9 25.88 2.52 23h37.7l1.78-23Zm23.55 19.19h-4L25 37.19l2.88-2.54 2.26 5.8.06.32.05-.19 1.94-8.46 2.81-3.3Z" fill="currentcolor"/></svg><svg id="chat-left" xmlns="http://www.w3.org/2000/svg" viewBox="8 12 43 39"><path d="M22.8 41.42H9v-29h41.17v29h-14l-13.39 9Z" fill="currentcolor"/></svg><svg id="chat" xmlns="http://www.w3.org/2000/svg" viewBox="9 14 41 37"><path d="M28.52 44.74h11.07l6.51 5.66v-5.66h3.79v-15H28.52Z" fill="currentcolor"/><path fill="currentcolor" d="M26.52 27.71H40.4V14.06H9.11v21h5.91v7.56l7.31-7.56h4.19v-7.35z"/></svg><svg id="check-all" xmlns="http://www.w3.org/2000/svg" viewBox="12 8 38 42"><g fill="currentcolor"><path d="m29.1 32 20.2-20-4.1-3.9-20.2 20-8.5-8.1-4 4 8.5 8.1 4.1 3.9 2.6-2.6 1.4-1.4z"/><path opacity=".5" d="m29.4 45.9 20.1-20-4.1-3.9-20.2 20-8.4-8.1-4.1 4 12.6 12 2.6-2.5 1.5-1.5z"/></g></svg><svg id="check-circle" xmlns="http://www.w3.org/2000/svg" viewBox="9 8 44 44"><path d="M30.71 8.52A21.48 21.48 0 1 0 52.18 30 21.48 21.48 0 0 0 30.71 8.52ZM26.93 40l-8.2-7.82 2.63-2.6 5.52 5.25L40 21.84l2.69 2.54Z" fill="currentcolor"/></svg><svg id="check-square-outline" xmlns="http://www.w3.org/2000/svg" viewBox="10 10 39 40"><path fill="currentcolor" d="M28.61 37.69 42.41 24l-2.82-2.67L25.8 35.01l-5.81-5.53-2.76 2.74 5.81 5.53-.01.01 2.82 2.68 1.79-1.78.98-.97h-.01z"/><path d="M49 10.78H10.6v38.44H49V10.78ZM45.32 45.5h-31v-31h31Z" fill="currentcolor"/></svg><svg id="check-square" xmlns="http://www.w3.org/2000/svg" viewBox="10 10 39 40"><path fill="currentcolor" d="M28.61 37.69 42.41 24l-2.82-2.67L25.8 35.01l-5.81-5.53-2.76 2.74 5.81 5.53-.01.01 2.82 2.68 1.79-1.78.98-.97h-.01z"/><path d="M49 10.78H10.6v38.44H49V10.78ZM45.32 45.5h-31v-31h31Z" fill="currentcolor"/></svg><svg id="check" xmlns="http://www.w3.org/2000/svg" viewBox="8 12 44 34"><path fill="currentcolor" d="m51.26 17.43-4.76-4.52-23.29 23.1-9.8-9.33-4.67 4.62L23.3 45.17l27.96-27.74z"/></svg><svg id="chevron-down" xmlns="http://www.w3.org/2000/svg" viewBox="15 20 31 20"><path fill="currentcolor" d="M40.94 20.22 30.61 30.55 20.2 20.13l-4.66 4.66L25.95 35.2v.01l4.66 4.66 14.99-15-4.66-4.65z"/></svg><svg id="chevron-left" xmlns="http://www.w3.org/2000/svg" viewBox="19 14 21 32"><path fill="currentcolor" d="M39.44 40.37 29.02 29.96l10.34-10.33-4.66-4.66-15 14.99 4.66 4.66h.01l10.41 10.41 4.66-4.66z"/></svg><svg id="chevron-right" xmlns="http://www.w3.org/2000/svg" viewBox="20 14 21 32"><path fill="currentcolor" d="M40.44 29.96 25.45 14.97l-4.66 4.66 10.33 10.33L20.7 40.37l4.66 4.66 10.42-10.41 4.66-4.66z"/></svg><svg id="chevron-up" xmlns="http://www.w3.org/2000/svg" viewBox="15 20 31 20"><path fill="currentcolor" d="m45.6 35.13-14.99-15-4.66 4.66v.01L15.54 35.21l4.66 4.66 10.41-10.42 10.33 10.33 4.66-4.65z"/></svg><svg id="clock" xmlns="http://www.w3.org/2000/svg" viewBox="7 7 46 46"><path d="M30 52.5A22.5 22.5 0 1 1 52.5 30 22.52 22.52 0 0 1 30 52.5Zm0-42A19.5 19.5 0 1 0 49.5 30 19.53 19.53 0 0 0 30 10.5Z" fill="currentcolor"/><circle cx="29.59" cy="29.82" r="2.51" fill="currentcolor"/><path d="m29.05 27.37-5.3-4.81a1.5 1.5 0 0 0-2 2.22l5.36 4.87a2.51 2.51 0 0 1 1.94-2.28Z" fill="currentcolor" opacity=".75"/><path d="M42.75 18.93a1.5 1.5 0 0 0-2.11-.19L30.23 27.4a2.5 2.5 0 0 1 1.87 2.35l10.46-8.7a1.51 1.51 0 0 0 .19-2.12Z" fill="currentcolor" opacity=".5"/></svg><svg id="clone" xmlns="http://www.w3.org/2000/svg" viewBox="12 8 36 41"><path fill="currentcolor" opacity=".5" d="M21.26 40.57V17.05h-9.19v31.4H36.3v-7.88H21.26z"/><path fill="currentcolor" d="M24.7 8.55h23.23v28.4H24.7z"/></svg><svg id="cloud" xmlns="http://www.w3.org/2000/svg" viewBox="6 14 48 30"><path fill="currentcolor" d="M46.6 26.2v-1c0-5.9-4.8-10.7-10.7-10.7-4 0-7.4 2.2-9.2 5.4-1-.5-2.2-.8-3.4-.8-4 0-7.3 3-7.9 6.8-4.8 0-8.8 3.9-8.8 8.8s3.9 8.8 8.8 8.8h29.2c4.8 0 8.8-3.9 8.8-8.8 0-4.2-2.9-7.6-6.8-8.5z"/></svg><svg id="code-slash" xmlns="http://www.w3.org/2000/svg" viewBox="8 20 44 19"><path d="M20.41 36.2 8.35 30.87v-1.73l12.06-6V26l-8.31 3.88 8.31 3.41v2.91Zm14.1-15.29-6.62 17.76h-3l6.61-17.76Zm4.78 12.38 8.31-3.41L39.29 26v-2.88l12.06 6v1.73L39.29 36.2Z" fill="currentcolor"/></svg><svg id="component" xmlns="http://www.w3.org/2000/svg" viewBox="9 12 46 36"><path fill="currentcolor" d="M49.9 26.7c-2.5 0-4 2.2-5 2.2s-2-3.1-2-5.7V12.4h-5.5c-2.1.3-4 1.1-4 1.9 0 1 2.2 2.5 2.2 5s-1.8 4.9-4.4 4.9H30c-2.7 0-4.4-2.3-4.4-4.9 0-2.5 2.2-4 2.2-5 0-.8-1.9-1.6-4-1.9H9.3v9.1c.3 2.1 1.1 4 1.9 4 1 0 2.5-2.2 5-2.2S21 25 21 27.6v1.2c0 2.7-2.3 4.4-4.9 4.4s-4-2.2-5-2.2c-.8 0-1.6 1.9-1.9 4v12.6h9.7c2.5-.1 5.2-1.1 5.2-2 0-1-2.2-2.5-2.2-5s1.8-4.9 4.4-4.9h1.2c2.7 0 4.4 2.3 4.4 4.9 0 2.5-2.2 4-2.2 5 0 .9 2.7 1.9 5.2 2h7.9v-7.3c0-2.7 1.1-5.7 2-5.7 1 0 2.5 2.2 5 2.2s4.9-1.8 4.9-4.4v-1.2c0-2.7-2.3-4.5-4.8-4.5z"/></svg><svg id="configuration" xmlns="http://www.w3.org/2000/svg" viewBox="9 10 41 41"><path fill="currentcolor" d="M46.7 27.7c2.8-2.8 3.9-6.4 2.9-9.7l-.1-.4-7.3 7.3-4.8-2.2-2.2-4.8 7.3-7.3-.4-.1c-3.3-1-6.9.1-9.7 2.9-2.9 2.9-3.8 7.2-2.3 11l-19 19c-1.5 1.5-1.5 4 0 5.5s4 1.5 5.5 0L35.5 30c3.9 1.5 8.3.6 11.2-2.3zM14.6 48.2c-.4.2-.9.2-1.4 0-1.7-.6-2-2.6-.9-3.7.9-.9 2.3-.9 3.2 0 1.1 1.1.8 3.1-.9 3.7z"/></svg><svg id="cut" xmlns="http://www.w3.org/2000/svg" viewBox="8 6 44 44"><path d="m51.15 17.49-17 8.06-1.91 4.82c4.34-2.09 13.47-6.47 16.08-7.74a4.94 4.94 0 0 0 2.83-5.14Z" fill="currentcolor"/><path d="M33.05 36.83a7.15 7.15 0 0 0-4.61-1.63l1.21-3.2L39.87 6.45s-3.92.09-5.1 3L27 28.8l-3.86 1.73a7.18 7.18 0 0 0-14.34 0 6.52 6.52 0 0 0 1.86 5.17 7.55 7.55 0 0 0 6.12 2.3c2.61-.32 7.8-3.78 7.8-3.78s-3.22 5.17-3.26 8a7.24 7.24 0 0 0 2.62 5.7 7.18 7.18 0 1 0 9.11-11.1ZM19 34.19a4.53 4.53 0 0 1-7.58-3.56 4.54 4.54 0 0 1 7.88-2.84 4.54 4.54 0 0 1-.3 6.4Zm13 11.06a4.53 4.53 0 1 1-3.55-7.4 4.46 4.46 0 0 1 2.92 1 4.53 4.53 0 0 1 .63 6.4Z" fill="currentcolor"/></svg><svg id="dash" xmlns="http://www.w3.org/2000/svg" viewBox="10 25 39 9"><path fill="currentcolor" d="M10.54 25.84h37.87v7.31H10.54z"/></svg><svg id="dashboard" xmlns="http://www.w3.org/2000/svg" viewBox="12 11 36 38"><path fill="currentcolor" d="M12.44 11.96h8.85v8.85h-8.85zm0 13.73h8.85v8.85h-8.85zm0 13.5h8.85v8.85h-8.85zm13.27-27.23h8.85v8.85h-8.85zm0 13.73h8.85v8.85h-8.85zm0 13.5h8.85v8.85h-8.85zm13.01-27.23h8.85v8.85h-8.85zm0 13.73h8.85v8.85h-8.85zm0 13.5h8.85v8.85h-8.85z"/></svg><svg id="database" xmlns="http://www.w3.org/2000/svg" viewBox="12 11 36 38"><g fill="currentcolor"><ellipse opacity=".5" cx="30" cy="15.8" rx="17.4" ry="4.5"/><path d="M30 20.4c-9.6 0-17.4-2-17.4-4.5v8.7C12.6 27 20.4 29 30 29s17.4-2 17.4-4.5v-8.7c0 2.5-7.8 4.6-17.4 4.6z"/><path d="M12.6 27.1v7.3c0 2.5 7.8 4.5 17.4 4.5s17.4-2 17.4-4.5v-7.3C44 29.7 35.5 30.5 30 30.5c-5.5 0-14-.8-17.4-3.4z"/><path d="M12.6 37v7.1c0 2.5 7.8 4.5 17.4 4.5s17.4-2 17.4-4.5V37C44 39.7 35.5 40.4 30 40.4c-5.5 0-14-.7-17.4-3.4z"/></g></svg><svg id="delivery-note" xmlns="http://www.w3.org/2000/svg" viewBox="14 8 32 44"><path fill="currentcolor" opacity=".5" d="M24.29 8.17 14.07 19.91h10.22V8.17z"/><path d="M24.29 8.17v11.74H14.07v31.92h31.86V8.17Zm5.37 32.59c-5.58 0-9.45-3.76-10.78-8.76h1.5c.55 2 1.49 2.47 2.7 3.7a11 11 0 0 1-.23-2.24 5.65 5.65 0 0 1 5.65-5.65 5.74 5.74 0 0 1 5.66 5.75 7.22 7.22 0 0 1-.43 2.44 7.28 7.28 0 0 0 2.17-6h5.22c-.53 5-6.55 10.76-11.46 10.76Z" fill="currentcolor"/><path d="M28.5 29.66a3.64 3.64 0 1 0 3.64 3.63 3.64 3.64 0 0 0-3.64-3.63Z" fill="currentcolor"/></svg><svg id="delivery" xmlns="http://www.w3.org/2000/svg" viewBox="6 16 50 28"><path d="M44.21 19.54a20.94 20.94 0 0 1-4.85 14.74A12.66 12.66 0 1 0 15 29.47a12.5 12.5 0 0 0 .52 3.58 25.11 25.11 0 0 1-6-9.89h-3.4c3 12 11.63 20 24.12 20 11 0 24.45-11.63 25.64-23.65Zm-16.56.71a9.22 9.22 0 1 1-9.22 9.22 9.22 9.22 0 0 1 9.22-9.22Z" fill="currentcolor"/></svg><svg id="desktop" xmlns="http://www.w3.org/2000/svg" viewBox="9 12 42 36"><g fill="currentcolor"><path d="M9.3 12.7v25h41.3v-25H9.3zm39.3 22.9H11.3V14.8h37.2v20.8zm-22 4h6.8v4.2h-6.8zm-5.5 6.2h17.8v1.6H21.1z"/><path opacity=".25" d="M11.3 14.8h37.2v20.9H11.3z"/></g></svg><svg id="diagnosis" xmlns="http://www.w3.org/2000/svg" viewBox="7 9 48 41"><path d="M47.22 24.86a7.4 7.4 0 0 0-1 14.73v-2a5.4 5.4 0 1 1 2 0v2a7.4 7.4 0 0 0-1-14.73ZM13.21 9.8h5v5h-5zm11.48 0h5v5h-5z" fill="currentcolor" opacity=".75"/><path d="M50.22 32.26a3 3 0 1 0-4 2.82v12.86H25.89a3.44 3.44 0 0 1-3.43-3.43v-5.28A12.94 12.94 0 0 0 35.43 26.3V16.1a4.81 4.81 0 0 0-4.8-4.8h-.88v2h.88a2.81 2.81 0 0 1 2.8 2.8v10.2A11 11 0 0 1 22.5 37.23h-2.07A10.94 10.94 0 0 1 9.5 26.3V16.1a2.8 2.8 0 0 1 2.8-2.8h.88v-2h-.88a4.8 4.8 0 0 0-4.8 4.8v10.2a12.94 12.94 0 0 0 12.93 12.93v5.28a5.44 5.44 0 0 0 5.43 5.43h22.36V35.08a3 3 0 0 0 2-2.82Z" fill="currentcolor"/></svg><svg id="dot" xmlns="http://www.w3.org/2000/svg" viewBox="0 0 60 60"><circle cx="30" cy="30" r="4.15" fill="currentcolor"/></svg><svg id="download-file" xmlns="http://www.w3.org/2000/svg" viewBox="14 7 32 44"><path fill="currentcolor" opacity=".5" d="M24.36 7.17 14.14 18.91h10.22V7.17z"/><path d="M24.36 7.17v11.74H14.14v31.92H46V7.17Zm8.31 36.08-.77.75-1.85 1.85L28.19 44l-6.59-6.57 2.62-2.63 4 4V23.63h3.68v15.13l4-4 2.62 2.63-5.87 5.87Z" fill="currentcolor"/></svg><svg id="download" xmlns="http://www.w3.org/2000/svg" viewBox="10 8 39 43"><path fill="currentcolor" d="M48.62 50.83H10.19v-3.71H48.6l.02 3.71zM18.8 23.74l7.2 7.2V8.82h6.73v22.11l7.28-7.28 4.76 4.76-15.4 15.42L14.03 28.5l4.77-4.76z"/></svg><svg id="draggable" xmlns="http://www.w3.org/2000/svg" viewBox="9 8 42 44"><path d="m30 8.9 8 8-2.17 2.17-5.59-5.59-.24-.24-.22.22L24.22 19l-2.17-2.17L30 8.9M24.22 41l5.59 5.59.21.22.22-.22L35.78 41 38 43.17l-8 7.93-8-8 2.22-2.1M9.11 24.05l41.78.07v3.14l-41.78-.07v-3.14m0 8.69 41.78.07V36l-41.78-.12v-3.14" fill="currentcolor"/></svg><svg id="droplet" xmlns="http://www.w3.org/2000/svg" viewBox="17 10 26 40"><path d="M30 10.16S17.13 29.87 17.13 37a12.87 12.87 0 0 0 25.74 0C42.87 29.87 30 10.16 30 10.16Zm7.22 34.13a10.19 10.19 0 0 1-14.44 0C30 45.92 38.26 40 39.41 33.09a10.21 10.21 0 0 1-2.19 11.2Z" fill="currentcolor"/><path d="M40.21 37.07a10.18 10.18 0 0 1-3 7.22 10.19 10.19 0 0 1-14.44 0C30 45.92 38.26 40 39.41 33.09a10.14 10.14 0 0 1 .8 3.98Z" fill="currentcolor" opacity=".75"/></svg><svg id="e-commerce" xmlns="http://www.w3.org/2000/svg" viewBox="10 6 40 47"><path fill="currentcolor" d="m41.3 40.6-3.9-3.9c.1-.1.1-.2.1-.2 1.5-2.3 2.4-5.2 2.4-8.2 0-3.5-1.3-6.7-3.3-9.3-.9 1.1-1.9 2.5-2.7 3.6 1.1 1.6 1.7 3.6 1.7 5.7 0 3.2-1.5 6.1-3.7 8-.2.1-.4.3-.5.4l-.2.2c-.2.1-.3.2-.5.3-.1.1-.2.1-.3.2-.2.1-.3.2-.5.3-.1.1-.2.1-.4.2s-.3.1-.5.2c-.1.1-.3.1-.4.2-.2.1-.3.1-.5.1-.2.1-.3.1-.5.1-.1 0-.3.1-.4.1-.2 0-.4.1-.6.1h-.4c-.3 0-.7.1-1 .1-.5 0-.9 0-1.3-.1-.1 0-.2 0-.4-.1-.4-.1-.7-.1-1-.2-.1 0-.2 0-.3-.1-.4-.1-.8-.3-1.2-.4-.1 0-.2-.1-.3-.1-.3-.1-.6-.3-.9-.5-.1-.1-.2-.1-.3-.2-.4-.2-.7-.5-1-.7l-.1-.1c-.3-.2-.6-.5-.8-.8l-.3-.3c-.2-.2-.4-.5-.6-.8l-.2-.2c-.2-.3-.4-.7-.6-1-.6-1.1-1-2.3-1.2-3.5v-.3c0-.3-.1-.6-.1-.9v-.3c0-5.8 4.7-10.5 10.5-10.5 1.1 0 2.2.2 3.2.5.9-1.3 1.8-2.5 2.7-3.6-1.8-.8-3.8-1.3-5.9-1.3-7.8 0-14.2 6-14.8 13.6 0 .4-.1.8-.1 1.3 0 8.2 6.7 14.9 14.9 14.9 2.9 0 5.6-.8 7.9-2.3l.4-.2 11.9 11.9 4-4-8-7.9z"/><path opacity=".75" fill="currentcolor" d="M21 30.1h-4.3c.2.8.5 1.6.9 2.3.2.3.3.5.5.8h3c3.2 0 6.3-4.5 10-9.8 2.3-3.4 5.8-8.4 7.4-8.4h4.9l-2.6 2.7 2.2 2.2 6.5-6.5L43 6.9 40.6 9l2.9 3h-5.2c-3.2 0-6.3 4.5-10 9.8-2.2 3.2-5.7 8.3-7.3 8.3z"/></svg><svg id="edit-box" xmlns="http://www.w3.org/2000/svg" viewBox="8 11 43 38"><path d="m43.64 13.62 3.74 9.76H12.65l3.74-9.76h27.25m1.72-2.5H14.67L9 25.88h42l-5.64-14.76Z" fill="currentcolor" opacity=".75"/><path d="m9 25.88 2.53 23H49.2l1.78-23Zm13.23 20a.56.56 0 0 1-.71-.69l.94-3.12 2.85 2.85Zm4.21-1.31L22.8 41l9.2-9.32 3.64 3.64Zm10-10-3.65-3.64 2-2.05 3.65 3.65Z" fill="currentcolor"/><path fill="currentcolor" opacity=".25" d="m43.64 13.62 3.74 9.76H12.65l3.74-9.76h27.25"/></svg><svg id="envelope-open" xmlns="http://www.w3.org/2000/svg" viewBox="10 7 41 43"><path opacity=".75" fill="currentcolor" d="M16.9 7.4v19l13.6 8.2 13.7-8.2v-19H16.9zM21.3 18H32v3H21.3v-3zM38 25.7H21.2v-3H38v3zm1.8-9.4H21.3v-3h18.5v3z"/><path fill="currentcolor" d="M50.7 25.5v-3l-6.5-3.8v2.8l4.2 2.4h.1v3L30.4 37.7l-18-10.8V24l4.5-2.5v-2.8l-6.8 3.8v27.1h40.6z"/></svg><svg id="envelope" xmlns="http://www.w3.org/2000/svg" viewBox="10 16 41 28"><g fill="currentcolor"><path d="m10.4 16.3 19.9 12.1 20.4-12.1z"/><path d="M30.3 31.9 10.1 19.7v23.9h40.6V19.7z"/></g></svg><svg id="error-file" xmlns="http://www.w3.org/2000/svg" viewBox="14 8 32 44"><path fill="currentcolor" opacity=".5" d="M24.29 8.17 14.07 19.91h10.22V8.17z"/><path d="M24.29 8.17v11.74H14.07v31.92h31.86V8.17Zm0 38.15L30 33.49h-8l5-10.33h5.63l-3.43 6.72H38Z" fill="currentcolor"/></svg><svg id="error" xmlns="http://www.w3.org/2000/svg" viewBox="16 10 28 40"><path d="m20.27 49.9 9.72-22H16.25l8.53-17.8h9.68l-5.89 11.54h15.18Z" fill="currentcolor"/></svg><svg id="euro-circle" xmlns="http://www.w3.org/2000/svg" viewBox="9 8 44 44"><path d="M30.71 8.52A21.48 21.48 0 1 0 52.18 30 21.48 21.48 0 0 0 30.71 8.52Zm1.71 34c-5.29 0-8.64-2.59-10.26-7.93v-.09h-2.44v-3.14h1.85v-.14c0-.36-.05-.71-.05-1.08s0-.9.05-1.36v-.14h-1.85v-3.13h2.47v-.09c1.69-5.34 5.07-7.93 10.35-7.93a14.34 14.34 0 0 1 6 1.22l-1.34 2.82a11.11 11.11 0 0 0-4.63-.9c-4.11 0-5.77 1.88-7 4.7l-.08.18h8v3.13h-8.75v.12c-.05.51-.07.95-.07 1.38v1.22h8.78v3.13h-8.04l.08.18c1.19 2.82 2.83 4.7 6.93 4.7a12.77 12.77 0 0 0 4.86-.9l1.37 2.82a15.58 15.58 0 0 1-6.23 1.22Z" fill="currentcolor"/></svg><svg id="exclamation-octagon" xmlns="http://www.w3.org/2000/svg" viewBox="11 11 38 38"><path d="M37.66 11.5H22.34L11.5 22.34v15.32L22.34 48.5h15.32L48.5 37.66V22.34Zm-5.8 28.61h-3.72v-3.73h3.72Zm0-6.92h-3.72v-13.3h3.72Z" fill="currentcolor"/></svg><svg id="exclamation-triangle" xmlns="http://www.w3.org/2000/svg" viewBox="10 10 40 36"><path d="M30 11 10.2 45.28h39.6Zm1.5 29.71h-3v-3h3Zm-3-5.85V23.69h3v11.15Z" fill="currentcolor"/></svg><svg id="eye-slash" xmlns="http://www.w3.org/2000/svg" viewBox="8 9 44 42"><path fill="currentcolor" d="M9.37 48.505 48.501 9.374l2.122 2.121L11.49 50.626zM42.75 22.2l-3.54 3.54a10.14 10.14 0 0 1-13.47 13.47l-1.86 1.86a19.78 19.78 0 0 0 6.12 1C41.87 42.09 51.5 30 51.5 30a41.29 41.29 0 0 0-8.75-7.8Zm-25.5 15.6 3.54-3.54a10.14 10.14 0 0 1 13.47-13.47l1.86-1.86a19.78 19.78 0 0 0-6.12-1C18.13 17.91 8.5 30 8.5 30a41.29 41.29 0 0 0 8.75 7.8Z"/></svg><svg id="eye" xmlns="http://www.w3.org/2000/svg" viewBox="7 16 46 27"><path d="M30 21.73a7.58 7.58 0 1 0 7.57 7.58v-.66a4.56 4.56 0 0 1-2.08.5 4.46 4.46 0 0 1-1-.12 2.66 2.66 0 0 1 0 .28A4.46 4.46 0 1 1 30 24.85a4.77 4.77 0 0 1 .76.07 4.36 4.36 0 0 1-.05-.52 4.71 4.71 0 0 1 .73-2.53 7.56 7.56 0 0 0-1.44-.14Z" fill="currentcolor" opacity=".5"/><path d="M30 16.55c-12.52 0-22.68 12.76-22.68 12.76S17.48 42.06 30 42.06s22.68-12.75 22.68-12.75S42.52 16.55 30 16.55ZM30 40a10.71 10.71 0 1 1 4.74-20.31 4.75 4.75 0 1 0 5.3 5.9 10.56 10.56 0 0 1 .67 3.7A10.71 10.71 0 0 1 30 40Z" fill="currentcolor"/></svg><svg id="file-earmark-arrow-up" xmlns="http://www.w3.org/2000/svg" viewBox="13 7 33 44"><path fill="currentcolor" opacity=".5" d="M24.16 7.21 13.95 18.95h10.21V7.21z"/><path d="M24.16 7.21V19H14v31.88h31.8V7.21Zm11.76 27.53-4-4v15.17h-3.68V30.78l-4 4-2.64-2.61 5.87-5.87 2.62-2.63L32 25.53l6.59 6.59Z" fill="currentcolor"/></svg><svg id="file-earmark-check" xmlns="http://www.w3.org/2000/svg" viewBox="14 7 32 44"><path fill="currentcolor" opacity=".5" d="M24.29 7.21 14.07 18.95h10.22V7.21z"/><path d="M24.29 7.21V19H14.07v31.88h31.86V7.21Zm2.17 35-8.2-7.82 2.63-2.6 5.52 5.26L39.54 24l2.68 2.55Z" fill="currentcolor"/></svg><svg id="file-earmark-image" xmlns="http://www.w3.org/2000/svg" viewBox="13 7 33 44"><path fill="currentcolor" opacity=".5" d="M23.96 7.33 13.74 19.07h10.22V7.33z"/><path d="M24 7.33v11.74H13.74V51H45.6V7.33Zm16.79 38h-22.2V25h22.16Z" fill="currentcolor"/><path d="M40.75 45.31H18.59v-6.89a33.68 33.68 0 0 1 9.89 1.63c4.51 1.63 12.27 0 12.27 0Z" fill="currentcolor" opacity=".7"/><path d="M35.16 34.26a2.54 2.54 0 0 1 .78-1.82 2.59 2.59 0 1 0 0 5.17 2.74 2.74 0 0 0 1.9-.76 2.64 2.64 0 0 1-2.68-2.59Z" fill="currentcolor"/><path d="M18.59 25v13.42a33.68 33.68 0 0 1 9.89 1.63c4.51 1.63 12.27 0 12.27 0V25Zm17.35 12.61a2.59 2.59 0 1 1 0-5.17 2.54 2.54 0 0 0-.78 1.82 2.64 2.64 0 0 0 2.68 2.59 2.74 2.74 0 0 1-1.9.76Z" fill="currentcolor" opacity=".2"/></svg><svg id="file-earmark-lightning" xmlns="http://www.w3.org/2000/svg" viewBox="14 8 32 44"><path fill="currentcolor" opacity=".5" d="M24.29 8.17 14.07 19.91h10.22V8.17z"/><path d="M24.29 8.17v11.74H14.07v31.92h31.86V8.17Zm0 38.15L30 33.49h-8l5-10.33h5.63l-3.43 6.72H38Z" fill="currentcolor"/></svg><svg id="file-earmark-minus" xmlns="http://www.w3.org/2000/svg" viewBox="14 8 32 44"><path fill="currentcolor" opacity=".5" d="M24.29 8.17 14.07 19.91h10.22V8.17z"/><path d="M24.29 8.17v11.74H14.07v31.92h31.86V8.17ZM36.55 44 30 37.43 23.45 44l-2.62-2.62 6.55-6.55-6.55-6.56 2.62-2.62L30 32.19l6.55-6.56 2.62 2.62-6.55 6.56 6.55 6.55Z" fill="currentcolor"/></svg><svg id="file-earmark-pdf" xmlns="http://www.w3.org/2000/svg" viewBox="13 8 34 44"><path fill="currentcolor" opacity=".5" d="M24.12 8.17 13.6 19.91h10.52V8.17zm6.36 16.1H18.67v9.05h11.81Z"/><path d="M24.12 8.17v11.74H13.6v31.92h32.8V8.17Zm-5.45 16.14h11.81v9.05H18.67Zm16.81 19.11H18.59V42h16.89Zm5.93-2.52H18.59v-1.42h22.82Zm0-2.52H18.59V37h22.82Zm-8.34-5.06v-1.41h7.55v1.41Zm8.34-2.58h-8.34v-1.42h8.34Zm-8.34-2.52V26.8h6.59v1.42Zm8.34-2.61h-8.34v-1.42h8.34Zm0-5.74H26.48v-3.29h14.93Z" fill="currentcolor"/></svg><svg id="file-earmark-play" xmlns="http://www.w3.org/2000/svg" viewBox="14 8 32 44"><path fill="currentcolor" opacity=".5" d="M24.36 8.15 14.14 19.89h10.22V8.15z"/><path d="M24.36 8.15v11.74H14.14v31.93H46V8.15Zm5.71 38A11.1 11.1 0 1 1 41.13 35a11.08 11.08 0 0 1-11.06 11.1Z" fill="currentcolor"/><path fill="currentcolor" d="m26.57 42.13 9.87-6.98-9.87-7v13.98z"/></svg><svg id="file-earmark-zip" xmlns="http://www.w3.org/2000/svg" viewBox="14 7 32 45"><path fill="currentcolor" opacity=".5" d="M24.29 7.56 14.07 19.3h10.22V7.56z"/><path d="M36.61 40.29A1.33 1.33 0 0 0 37.94 39v-3.68a1.34 1.34 0 0 0-2.67 0V39a1.33 1.33 0 0 0 1.34 1.29Z" fill="currentcolor"/><path d="M36.61 7.56v3h3v3.05h-3v3h3v3.05h-3v3.14h3v3.05h-3v3h3V32h-3a3 3 0 0 1 3 3v8.3a3 3 0 0 1-6.09 0v-8.31a3 3 0 0 1 3.05-3V28.9h-3v-3h3v-3.1h-3v-3.05h3V16.7h-3v-3h3v-3.1h-3v-3h-9.28v11.7H14.07v31.93h31.86V7.56Z" fill="currentcolor"/></svg><svg id="file-earmark" xmlns="http://www.w3.org/2000/svg" viewBox="14 8 32 44"><path fill="currentcolor" opacity=".5" d="M24.29 8.17 14.07 19.91h10.22V8.17z"/><path fill="currentcolor" d="M24.29 8.17v11.74H14.07v31.92h31.86V8.17H24.29z"/></svg><svg id="file-system" xmlns="http://www.w3.org/2000/svg" viewBox="7 13 46 34"><path fill="currentcolor" opacity=".5" d="M7.96 18.2h22.07l-4.27-4.28H7.95v10.41h.01V18.2z"/><path d="M8 18.19v27.89h44.05V18.19Zm25.32 21.72h-4.17l-3.81-8.28 3-2.67 2.38 6.09.06.35.05-.2 2-8.91 3-3.47Z" fill="currentcolor"/></svg><svg id="flag" xmlns="http://www.w3.org/2000/svg" viewBox="13 8 34 44"><path fill="currentcolor" d="m41.3 21.93 5.11-8.43v-.09H21.28v16.82h25.05l-5.03-8.3zM13.59 51.54h7.87L19 48.28V12.87a2.48 2.48 0 1 0-2.84 0v35.41Z"/></svg><svg id="folder-back" xmlns="http://www.w3.org/2000/svg" viewBox="7 13 46 34"><path fill="currentcolor" opacity=".5" d="M7.96 18.2h22.07l-4.27-4.28H7.95v10.41h.01V18.2z"/><path d="M8 18.19v27.89h44.05V18.19Zm24.3 22.93-6-6-2.7-2.65 8.61-8.61 2.68 2.67L29 32.47l6 6Z" fill="currentcolor"/></svg><svg id="folder-plus" xmlns="http://www.w3.org/2000/svg" viewBox="9 13 45 33"><path fill="currentcolor" opacity=".5" d="M9.07 17.56h22.06l-4.27-4.27H9.05v10.4h.02v-6.13z"/><path d="M9.07 17.56v27.89h44.08V17.56ZM40.66 33.4h-7.74v7.75H29V33.4h-7.77v-3.94H29v-7.75h3.94v7.75h7.74Z" fill="currentcolor"/></svg><svg id="folder" xmlns="http://www.w3.org/2000/svg" viewBox="7 13 46 34"><path fill="currentcolor" d="M52.05 46.08H7.96V18.19h44.09z"/><path fill="currentcolor" opacity=".5" d="M7.96 18.2h22.07l-4.27-4.28H7.95v10.41h.01V18.2z"/></svg><svg id="fullscreen-exit" xmlns="http://www.w3.org/2000/svg" viewBox="10 10 40 40"><path d="M21 10.1V21H10.1v3H24V10.1zM49.9 21H39V10.1h-3V24h13.9zM39 49.9V39h10.9v-3H36v13.9zM10.1 39H21v10.9h3V36H10.1z" fill="currentcolor"/></svg><svg id="fullscreen" xmlns="http://www.w3.org/2000/svg" viewBox="10 10 40 40"><path d="M13.1 24V13.1H24v-3H10.1V24zM36 13.1h10.9V24h3V10.1H36zM46.9 36v10.9H36v3h13.9V36zM24 46.9H13.1V36h-3v13.9H24z" fill="currentcolor"/></svg><svg id="funnel" xmlns="http://www.w3.org/2000/svg" viewBox="12 13 36 34"><path fill="currentcolor" d="M47.5 13.6h-35l14.2 14.2v18.6l6.6-5.8V27.8z"/></svg><svg id="gear" xmlns="http://www.w3.org/2000/svg" viewBox="10 10 40 40"><path d="M45 30a14.86 14.86 0 0 0-.13-2 23.94 23.94 0 0 0 4.26-2.81 21.18 21.18 0 0 0-.92-2.79 28.07 28.07 0 0 0-4.91.52 15 15 0 0 0-2.36-3.4 25.3 25.3 0 0 0 1.71-4.61 20 20 0 0 0-2.4-1.69 26.39 26.39 0 0 0-3.48 3.1 14.71 14.71 0 0 0-4.13-1.4 25.06 25.06 0 0 0-1.3-4.5c-.43 0-.87-.05-1.3-.05-.43 0-.87 0-1.3.05a24.23 24.23 0 0 0-1.29 4.5 14.66 14.66 0 0 0-4.14 1.4 26.39 26.39 0 0 0-3.48-3.1 20 20 0 0 0-2.4 1.69 25.3 25.3 0 0 0 1.71 4.61 15 15 0 0 0-2.36 3.4 28.07 28.07 0 0 0-4.91-.52 21.18 21.18 0 0 0-.92 2.79A23.94 23.94 0 0 0 15.17 28a15.6 15.6 0 0 0 0 4 23.94 23.94 0 0 0-4.26 2.81 21.18 21.18 0 0 0 .92 2.79 28.07 28.07 0 0 0 4.91-.52 15 15 0 0 0 2.36 3.4 25.3 25.3 0 0 0-1.71 4.61 20 20 0 0 0 2.4 1.69 26.39 26.39 0 0 0 3.48-3.1 14.71 14.71 0 0 0 4.13 1.4 25.06 25.06 0 0 0 1.3 4.5h2.6a25.06 25.06 0 0 0 1.3-4.5 14.71 14.71 0 0 0 4.13-1.4 26.39 26.39 0 0 0 3.48 3.1 20 20 0 0 0 2.4-1.69 25.3 25.3 0 0 0-1.71-4.61 15 15 0 0 0 2.36-3.4 28.07 28.07 0 0 0 4.91.52 21.18 21.18 0 0 0 .92-2.79A23.94 23.94 0 0 0 44.83 32a16.68 16.68 0 0 0 .17-2Zm-15 9a9 9 0 1 1 8.82-9A8.93 8.93 0 0 1 30 39Z" fill="currentcolor"/></svg><svg id="gift" xmlns="http://www.w3.org/2000/svg" viewBox="13 11 34 39"><path fill="currentcolor" d="M14.25 30.25h12.61v19.6H14.25z"/><path fill="currentcolor" opacity=".5" d="M26.87 30.25h6.27v19.6h-6.27z"/><path fill="currentcolor" d="M33.13 30.25h12.61v19.6H33.13z"/><path d="M19.62 21.61a23.51 23.51 0 0 0 2.4.13H38a23.33 23.33 0 0 0 2.39-.13A5.79 5.79 0 0 0 46 15.45a4.57 4.57 0 0 0-1.34-3.14A4.69 4.69 0 0 0 41 11.12c-3.33.15-6.71 4.47-8.2 6.63a3.12 3.12 0 0 0-5.64 0c-1.49-2.16-4.88-6.49-8.2-6.64a4.68 4.68 0 0 0-3.64 1.19 4.56 4.56 0 0 0-1.33 3 5.82 5.82 0 0 0 5.63 6.31Zm21.52-7.87a2.24 2.24 0 0 1 1.68.45 2.08 2.08 0 0 1 .55 1.37c0 .52.07 3.09-3.26 3.44a16.22 16.22 0 0 1-4.87-.14c1.76-2.41 4.23-5.04 5.9-5.12Zm-24.51 1.72a2 2 0 0 1 .54-1.27 2.1 2.1 0 0 1 1.47-.45h.21c1.67.08 4.17 2.71 5.9 5.12a16.17 16.17 0 0 1-4.86.14c-3.34-.35-3.31-2.92-3.26-3.54Z" fill="currentcolor" opacity=".5"/><path fill="currentcolor" d="M26.87 24.25H13.01v3.58h13.86v-3.58zm20.12 0H33.13v3.58h13.86v-3.58z"/><path fill="currentcolor" opacity=".5" d="M33.13 27.83v-3.58h-6.26v3.58h6.26z"/></svg><svg id="globe" xmlns="http://www.w3.org/2000/svg" viewBox="9 9 42 42"><path d="M30 9.5A20.5 20.5 0 1 0 50.5 30 20.52 20.52 0 0 0 30 9.5Zm-.86 10.84a22.48 22.48 0 0 1-6.34-1.15A22.44 22.44 0 0 1 29.14 12Zm0 1.71v7.09h-9a22.39 22.39 0 0 1 2-8.4 23.66 23.66 0 0 0 7 1.31Zm0 8.81V38a23.73 23.73 0 0 0-7.08 1.32 22.43 22.43 0 0 1-2-8.41Zm0 8.8V48a22.51 22.51 0 0 1-6.35-7.2 22.55 22.55 0 0 1 6.35-1.14Zm1.72 0a22.47 22.47 0 0 1 6.44 1.16 22.43 22.43 0 0 1-6.44 7.26Zm0-1.72v-7.08H40a22.38 22.38 0 0 1-2 8.4 23.94 23.94 0 0 0-7.14-1.32Zm0-8.8v-7.08A23.94 23.94 0 0 0 38 20.74a22.34 22.34 0 0 1 2 8.4Zm0-8.8v-8.42a22.55 22.55 0 0 1 6.44 7.26 22.53 22.53 0 0 1-6.44 1.16Zm2.3-8.84a18.73 18.73 0 0 1 9.69 4.84 21.68 21.68 0 0 1-4 2.22 24 24 0 0 0-5.69-7.06Zm-12 7.07a22.65 22.65 0 0 1-4-2.26A18.61 18.61 0 0 1 27 11.49a23.9 23.9 0 0 0-5.8 7.08Zm-.74 1.55a24.15 24.15 0 0 0-2.09 9h-7.07A18.72 18.72 0 0 1 16 17.55a24.21 24.21 0 0 0 4.46 2.57Zm-2.05 10.74a24.14 24.14 0 0 0 2.08 9A24.71 24.71 0 0 0 16 42.45a18.66 18.66 0 0 1-4.71-11.59Zm2.82 10.58a23.8 23.8 0 0 0 5.74 7.07 18.81 18.81 0 0 1-9.74-4.81 21.7 21.7 0 0 1 4-2.26Zm17.71 0a22.43 22.43 0 0 1 4 2.23 18.81 18.81 0 0 1-9.69 4.84 24.21 24.21 0 0 0 5.69-7.08Zm.74-1.55a24.19 24.19 0 0 0 2.08-9h7a18.71 18.71 0 0 1-4.65 11.51 24.64 24.64 0 0 0-4.43-2.52Zm2.08-10.74a24.14 24.14 0 0 0-2.08-9 24.1 24.1 0 0 0 4.43-2.53 18.76 18.76 0 0 1 4.67 11.55Z" fill="currentcolor"/></svg><svg id="grip-vertical" xmlns="http://www.w3.org/2000/svg" viewBox="23 11 14 38"><circle cx="25.62" cy="13.83" r="2.33" fill="currentcolor"/><circle cx="25.62" cy="21.87" r="2.33" fill="currentcolor"/><circle cx="25.62" cy="29.91" r="2.33" fill="currentcolor"/><circle cx="25.62" cy="38.13" r="2.33" fill="currentcolor"/><circle cx="25.62" cy="46.17" r="2.33" fill="currentcolor"/><circle cx="34.38" cy="13.83" r="2.33" fill="currentcolor"/><circle cx="34.38" cy="21.87" r="2.33" fill="currentcolor"/><circle cx="34.38" cy="29.91" r="2.33" fill="currentcolor"/><circle cx="34.38" cy="38.13" r="2.33" fill="currentcolor"/><circle cx="34.38" cy="46.17" r="2.33" fill="currentcolor"/></svg><svg id="hashtag" xmlns="http://www.w3.org/2000/svg" viewBox="13 10 33 39"><path fill="currentcolor" d="m38.5 26.4-1.4 7.4h7v4.4h-7.9l-2 10.8h-4.6l2.1-10.9h-6.5L23.1 49h-4.5l2-10.9H14v-4.4h7.4l1.5-7.4H16V22h7.6l2.1-11h4.7l-2.1 11h6.6L37 11h4.5l-2.1 11H46v4.4h-7.5zM26 33.7h6.5l1.5-7.4h-6.5L26 33.7z"/></svg><svg id="heart-fill" xmlns="http://www.w3.org/2000/svg" viewBox="10 13 40 35"><path d="m45.34 16.87-.16-.15c-4.87-4.87-9.79-3.46-14.76 1.51l-.42.38-.42-.38c-5-5-9.89-6.38-14.76-1.51l-.16.15Q7 24.55 14.14 31.68L30 47.5l15.86-15.82q7.14-7.14-.52-14.81Z" fill="currentcolor" fill-rule="evenodd"/></svg><svg id="heart" xmlns="http://www.w3.org/2000/svg" viewBox="10 14 40 34"><path fill="currentcolor" d="M21.1 16.6c1.9 0 4.2 1.3 6.7 3.8l.4.4 1.7 1.5 1.7-1.5.4-.4c2.5-2.5 4.8-3.8 6.7-3.8 1.5 0 3 .7 4.5 2.3l.2.2c4.1 4.1 4.3 7.5.5 11.3l-14 14 .1-.2-.1.1-14-14c-3.8-3.8-3.6-7.1.5-11.3l.2-.2c1.5-1.5 3-2.2 4.5-2.2m17.8-2.5c-2.8 0-5.6 1.7-8.5 4.5l-.4.4-.4-.4c-2.8-2.8-5.7-4.5-8.5-4.5-2.1 0-4.2.9-6.3 3l-.2.2c-5.1 5.1-5.3 10-.5 14.8L30 47.9l15.8-15.8c4.8-4.8 4.6-9.7-.5-14.8l-.2-.2c-2-2.1-4.1-3-6.2-3z"/></svg><svg id="hierarchy" xmlns="http://www.w3.org/2000/svg" viewBox="11 8 38 41"><path fill="currentcolor" d="M26.35 8.27h7.3v7.3h-7.3zm-14.47 33h7.3v7.3h-7.3zm28.94 0h7.3v7.3h-7.3zm-23.28-11h25.1v6.58h4.01V26.56H32.01v-6.99h-4.02v6.99H13.53v10.29h4.01v-6.58z"/></svg><svg id="house" xmlns="http://www.w3.org/2000/svg" viewBox="9 10 42 39"><path d="m30.08 14.46-16 16.1V48.5H25.7V33.22h8.78V48.5h11.75V30.56Z" fill="currentcolor"/><path fill="currentcolor" opacity=".75" d="M42.99 23.12v-9.38H37.1v3.49l-7.01-7.01L9.6 30.71l2.12 2.12 18.37-18.37 18.19 18.19 2.12-2.12-7.41-7.41z"/></svg><svg id="image" xmlns="http://www.w3.org/2000/svg" viewBox="10 10 39 40"><path d="M10.55 10.06v39.21h38.24V10.06Zm34 31.82H14.8V14.63h29.74Z" fill="currentcolor"/><path d="M44.54 41.88H14.8v-9.24a45.43 45.43 0 0 1 13.28 2.18c6.05 2.19 16.46 0 16.46 0Z" fill="currentcolor" opacity=".7"/><path d="M37 27.06a3.42 3.42 0 0 1 1-2.45 3.47 3.47 0 1 0 0 6.94 3.61 3.61 0 0 0 2.55-1A3.53 3.53 0 0 1 37 27.06Z" fill="currentcolor"/><path d="M14.8 14.63v18a45.43 45.43 0 0 1 13.28 2.18c6.05 2.19 16.46 0 16.46 0V14.63Zm23.28 16.92a3.47 3.47 0 1 1 0-6.94 3.42 3.42 0 0 0-1 2.45 3.53 3.53 0 0 0 3.59 3.46 3.61 3.61 0 0 1-2.59 1.03Z" fill="currentcolor" opacity=".2"/></svg><svg id="inbox" xmlns="http://www.w3.org/2000/svg" viewBox="7 11 46 35"><path opacity=".75" fill="currentcolor" d="M47.4 17.3H12.9v23h2.9V20.2h31.6z"/><path opacity=".5" fill="currentcolor" d="M42.1 11.9H7.6V35h2.9V14.8h31.6z"/><g fill="currentcolor"><path d="M18.6 22.8 35.4 33l17.1-10.2z"/><path d="m35.4 36-17-10.3v20.1h34.2V25.7z"/></g></svg><svg id="info-circle" xmlns="http://www.w3.org/2000/svg" viewBox="7 7 46 46"><g fill="currentcolor"><path d="M30 52.5C17.6 52.5 7.5 42.4 7.5 30S17.6 7.5 30 7.5 52.5 17.6 52.5 30 42.4 52.5 30 52.5zm0-42c-10.8 0-19.5 8.7-19.5 19.5S19.2 49.5 30 49.5 49.5 40.8 49.5 30 40.8 10.5 30 10.5z"/><path d="M28 20.1h3.9V24H28zm0 7.5h4v12.3h-4z"/></g></svg><svg id="interface" xmlns="http://www.w3.org/2000/svg" viewBox="9 10 44 40"><path d="M24.48 27.61s1.58-2.28 2.3-3.3c-3.14-4.27-6.05-7.39-9-7.39h-8.4v3.8h8.39c1.46 0 4.23 3.43 6.71 6.89ZM42 35.82l3.44 3.46h-6.26c-1.43 0-4.12-3.32-6.58-6.72l-.22.32c-.7 1-1.4 2-2.08 3 3.1 4.18 6 7.22 8.88 7.22h6.21L42 46.56l2.71 2.66 7.94-8-8-8Z" fill="currentcolor"/><path d="M44.65 10.78 42 13.45l3.62 3.64h-6.44c-4 0-7.8 5.57-12.26 12-2.86 4.13-7.19 10.37-9.15 10.37H9.38v3.8h8.39c3.95 0 7.81-5.56 12.27-12 2.86-4.13 7.18-10.37 9.14-10.37h6L42 24.19l2.71 2.67 7.94-8Z" fill="currentcolor"/><path d="M24.48 27.61s1.58-2.28 2.3-3.3c-3.14-4.27-6.05-7.39-9-7.39h-8.4v3.8h8.39c1.46 0 4.23 3.43 6.71 6.89ZM42 35.82l3.44 3.46h-6.26c-1.43 0-4.12-3.32-6.58-6.72l-.22.32c-.7 1-1.4 2-2.08 3 3.1 4.18 6 7.22 8.88 7.22h6.21L42 46.56l2.71 2.66 7.94-8-8-8Z" fill="currentcolor"/><path d="M44.65 10.78 42 13.45l3.62 3.64h-6.44c-4 0-7.8 5.57-12.26 12-2.86 4.13-7.19 10.37-9.15 10.37H9.38v3.8h8.39c3.95 0 7.81-5.56 12.27-12 2.86-4.13 7.18-10.37 9.14-10.37h6L42 24.19l2.71 2.67 7.94-8Z" fill="currentcolor"/></svg><svg id="invert-selection" xmlns="http://www.w3.org/2000/svg" viewBox="10 10 40 40"><path d="M49.2 10.78H10.78v38.44h38.44V10.78ZM28.72 37.12l-1 1L25.78 40l-3-2.84-6.16-5.86 2.94-2.9 6.17 5.87 14.65-14.54 3 2.85-14.66 14.54Z" fill="currentcolor"/></svg><svg id="justify-left" xmlns="http://www.w3.org/2000/svg" viewBox="11 13 37 34"><path fill="currentcolor" opacity=".5" d="M12 36.77h3.94v5.52H12zm0-9.53h3.94v5.52H12zm0-9.53h3.94v5.52H12z"/><path fill="currentcolor" d="M15.94 13.7H48v4.01H12V13.7h3.94zm0 9.53H48v4.01H12v-4.01h3.94zm0 9.53H48v4.01H12v-4.01h3.94zm0 9.53H30.8v4.01H12v-4.01h3.94z"/></svg><svg id="justify-right" xmlns="http://www.w3.org/2000/svg" viewBox="11 13 37 34"><path fill="currentcolor" opacity=".5" d="M44.06 36.77H48v5.52h-3.94zm0-9.53H48v5.52h-3.94zm0-9.53H48v5.52h-3.94z"/><path fill="currentcolor" d="M44.06 13.7H12v4.01h36V13.7h-3.94zm0 9.53H12v4.01h36v-4.01h-3.94zm0 9.53H12v4.01h36v-4.01h-3.94zm0 9.53H29.2v4.01H48v-4.01h-3.94z"/></svg><svg id="justify" xmlns="http://www.w3.org/2000/svg" viewBox="12 13 36 34"><path opacity=".5" fill="currentcolor" d="M28 36.8h3.9v5.5H28zm0-19.1h3.9v5.5H28zm0 9.5h3.9v5.5H28z"/><path fill="currentcolor" d="M16.4 13.7h-3.9v4h35v-4zm0 9.5h-3.9v4h35v-4zm0 9.6h-3.9v4h35v-4zm.2 9.5h-4.1v4h35v-4z"/></svg><svg id="key-chubb" xmlns="http://www.w3.org/2000/svg" viewBox="11 9 38 42"><path d="M31.6 29.94a2.47 2.47 0 0 1 2.65-.58 10.32 10.32 0 0 0 10.93-17.13 10.43 10.43 0 0 0-14.12.11 10.32 10.32 0 0 0-2.43 11.39 2.48 2.48 0 0 1-.57 2.67L11.5 43l7.5 7.47L20.45 49l-1.75-1.71 2.05-2L22.49 47l1.44-1.43-4-4Zm.65-13a6.58 6.58 0 1 1 8.81 8.81c-5.5 2.85-11.66-3.31-8.81-8.81Z" fill="currentcolor"/></svg><svg id="key-cylinder" xmlns="http://www.w3.org/2000/svg" viewBox="12 11 38 37"><path d="M30 15.15a11.26 11.26 0 0 0-2.28 12.61l-1.06 1.06-2.82 2.82L19.46 36l-6.91 6.91-.35 4.42 4.81-.5-.53-3.83 5.13.62-.26-4.78 5.39 1-.15-4.23 3.88.5 2.83-2.8A11.24 11.24 0 1 0 30 15.15Zm14.11 7a3.65 3.65 0 1 1 0-5.16 3.66 3.66 0 0 1 0 5.12Z" fill="currentcolor"/></svg><svg id="kiosk" xmlns="http://www.w3.org/2000/svg" viewBox="8 12 44 36"><path d="m16.34 22.11 3.52-9.72h-5.35L9 22.79a3.72 3.72 0 0 0 7.44 0Zm8.66 0 1.21-9.72h-5.29l-3.42 9.72.06.68a3.72 3.72 0 1 0 7.44 0Zm8.69 0-1.11-9.72h-5.26l-1.11 9.72v.68a3.72 3.72 0 1 0 7.44 0Zm8.71 0L39 12.39h-5.31l1.2 9.72.17.68a3.72 3.72 0 0 0 7.44 0Zm2.99-9.72H40l3.53 9.72.26.68a3.72 3.72 0 1 0 7.44 0Z" fill="currentcolor" opacity=".75"/><path d="M47.38 28.22a5.7 5.7 0 0 1-1.73-.22v11.3H14.41V27.9a5.82 5.82 0 0 1-1.9.32 5.83 5.83 0 0 1-.72-.06v19.45h36.32V28.16a5.83 5.83 0 0 1-.73.06Z" fill="currentcolor"/></svg><svg id="labels" xmlns="http://www.w3.org/2000/svg" viewBox="12 11 42 42"><path d="M29.15 11.07H12.21v16.82l25 24.77 16.7-16.59Zm-11.47 11a3.43 3.43 0 0 1 0-4.87 3.52 3.52 0 0 1 4.91 0 3.45 3.45 0 0 1 0 4.87 3.5 3.5 0 0 1-4.91.02Zm16.6 22.76-13.84-13.7 2.23-2.22L36.5 42.64Zm7.11-2.28-16.24-16.1 2.22-2.21 16.25 16.12ZM29.85 21.77l2.23-2.19 15.19 15.06L45 36.85Z" fill="currentcolor"/></svg><svg id="laptop" xmlns="http://www.w3.org/2000/svg" viewBox="8 13 44 34"><g fill="currentcolor"><path d="M12.3 13.7v22h35.3v-22H12.3zm33.2 20H14.3V15.8h31.2v17.9z"/><path opacity=".25" d="M14.3 15.8h31.2v17.9H14.3z"/><path d="M8.3 44.1h43.3v2.6H8.3z"/><path opacity=".75" d="M47.6 37.3H12.3l-4 6.7h43.3l-4-6.7zm-22 5.9 1-2.3h6.8l1 2.3h-8.8z"/><path opacity=".25" d="m25.6 43.2 1-2.3h6.8l.9 2.3z"/></g></svg><svg id="lightbulb" xmlns="http://www.w3.org/2000/svg" viewBox="19 10 24 39"><path fill="currentcolor" opacity=".75" d="m36.29 44.28.93-.77v-.77l-.93-.77.93-.77v-.78l-.93-.76h-9.73l-.93.76v.78l.93.77-.93.77v.77l.93.77-.93.77v.77l.93.77 1.83.74 1.01 1.3 2.02.27 2.03-.27 1.01-1.3 1.83-.74.93-.77v-.77l-.93-.77z"/><path d="M31 10.69a11.64 11.64 0 0 0-11.1 11.23 11.51 11.51 0 0 0 3.22 8.26 11 11 0 0 1 2 3.17 15.48 15.48 0 0 1 .88 4.17h10.9a14.51 14.51 0 0 1 .86-4.13 11.52 11.52 0 0 1 2-3.23A11.51 11.51 0 0 0 31 10.69Zm7.84 16.43a13.17 13.17 0 0 0-10.95-13.3l.62-.22a8.14 8.14 0 0 1 2-.44 9.43 9.43 0 0 1 1.84 0 9 9 0 0 1 8.07 8.94v.92a9.07 9.07 0 0 1-1.59 4.1Z" fill="currentcolor"/><path d="M40.37 22.1v.92a9 9 0 0 1-1.49 4.1 13.17 13.17 0 0 0-10.95-13.3l.62-.22a8.14 8.14 0 0 1 2-.44 9.43 9.43 0 0 1 1.84 0 9 9 0 0 1 7.98 8.94Z" fill="currentcolor" opacity=".75"/></svg><svg id="lightning" xmlns="http://www.w3.org/2000/svg" viewBox="16 10 28 40"><path d="m20.27 49.9 9.72-22H16.25l8.53-17.8h9.68l-5.89 11.54h15.18Z" fill="currentcolor"/></svg><svg id="link-45deg" xmlns="http://www.w3.org/2000/svg" viewBox="11 10 38 39"><path d="M46.18 13.82a9.62 9.62 0 0 0-13.61 0l-5.06 5.05-1.46 1.46a9.7 9.7 0 0 0 0 13.62 10.08 10.08 0 0 0 1.72 1.36l.91-.91a2.14 2.14 0 0 0 .61-1.76 6.21 6.21 0 0 1-1.07-.86 6.63 6.63 0 0 1 0-9.28l3-3 3.52-3.5A6.55 6.55 0 1 1 44 25.26l-3.48 3.49a14.46 14.46 0 0 1 .6 3.74l5-5.06a9.62 9.62 0 0 0 .06-13.61Z" fill="currentcolor"/><path d="M36.74 32.42a9.45 9.45 0 0 0-4.51-7.72l-.91.9a2.14 2.14 0 0 0-.61 1.76 6.57 6.57 0 0 1 1.71 9.38 5.73 5.73 0 0 1-.64.76l-3 3-3.52 3.5A6.56 6.56 0 1 1 16 34.74l3.48-3.49a14.46 14.46 0 0 1-.6-3.74l-5.05 5.06a9.62 9.62 0 0 0 13.6 13.61l5.06-5L34 39.67a9.65 9.65 0 0 0 2.79-7.25Z" fill="currentcolor"/></svg><svg id="list-item" xmlns="http://www.w3.org/2000/svg" viewBox="14 7 32 44"><path fill="currentcolor" opacity=".5" d="M24.29 7.23 14.07 18.97h10.22V7.23z"/><path d="M24.29 7.23V19H14.07v31.9h31.86V7.23ZM24 42.5h-3.64v-3.61H24Zm0-6.35h-3.64v-3.61H24Zm0-6.36h-3.64v-3.61H24Zm15.81 12H26.63v-2.16h13.15Zm0-6.35H26.63v-2.17h13.15Zm0-6.28H26.63V27h13.15Z" fill="currentcolor"/></svg><svg id="list-ul" xmlns="http://www.w3.org/2000/svg" viewBox="12 12 36 34"><path fill="currentcolor" d="M12.33 12.5h7.3v7.3h-7.3zM25 14.14h22.67v4.01H25zM12.33 25.35h7.3v7.3h-7.3zM25 26.99h22.67V31H25zM12.33 38.2h7.3v7.3h-7.3zM25 39.84h22.67v4.01H25z"/></svg><svg id="loader" xmlns="http://www.w3.org/2000/svg" viewBox="12 11 36 38"><path fill="currentcolor" d="M12.44 11.96h8.85v8.85h-8.85zm0 13.73h8.85v8.85h-8.85zm0 13.5h8.85v8.85h-8.85zm13.27-27.23h8.85v8.85h-8.85zm0 27.23h8.85v8.85h-8.85zm13.01-27.23h8.85v8.85h-8.85zm0 13.73h8.85v8.85h-8.85zm0 13.5h8.85v8.85h-8.85z"/></svg><svg id="locations" xmlns="http://www.w3.org/2000/svg" viewBox="17 10 26 40"><path d="M30 10.16A12.87 12.87 0 0 0 17.13 23C17.13 30.13 30 49.84 30 49.84S42.87 30.13 42.87 23A12.87 12.87 0 0 0 30 10.16Zm0 17.92A5.12 5.12 0 1 1 35.11 23 5.11 5.11 0 0 1 30 28.08Z" fill="currentcolor"/></svg><svg id="lock" xmlns="http://www.w3.org/2000/svg" viewBox="16 10 28 39"><path d="M40.74 27.32v-6.45a10.74 10.74 0 0 0-21.48 0v6.45l-2.79.18v20.57c2.14.19 10.45.92 13.53.92s11.37-.73 13.53-.93V27.5ZM22.9 20.87c0-4.65 2.41-7 7.1-7s7.1 2.36 7.1 7v6.23c-2.69-.16-5.48-.29-7-.29s-4.46.14-7.24.29Zm8.43 16.44.42 6.52h-3.5l.42-6.52a2.54 2.54 0 1 1 2.66 0Z" fill="currentcolor"/></svg><svg id="logbook" xmlns="http://www.w3.org/2000/svg" viewBox="12 9 36 42"><path d="M26.49 34.09v-.86a4.54 4.54 0 0 1-.31.58l-.65 1h1ZM23.21 26c0-.1-.06-.22-.09-.38s-.07-.26-.08-.32 0 .16-.06.3-.1.41-.21.83h.56Zm5.13-.64h-.14V26h.13c.25 0 .38-.11.38-.33s-.13-.31-.37-.31Z" fill="currentcolor"/><path d="M47.87 48.8v-39H16.81a3.2 3.2 0 0 0-3.15 3S12.1 43 12.09 46.46c0 2.54 2.22 3.9 4.55 3.9h28.84c1.65 0 2.62.08 2.39-1.56ZM41 24.82h2v.58h-.64v2.05h-.71V25.4H41Zm-1.09 0h.71v2.63h-.71Zm-2 0h1.56v.57h-.85v.42h.78v.57h-.78v.49h.85v.58h-1.56Zm-2.64 8.51-.66.55-.82-1 2-1.64h1.42v5.86h-1.6V33a3.22 3.22 0 0 1-.34.33ZM24.16 36v-1.21l2.43-3.56h1.47v3.54h.64V36h-.64v1.14h-1.57V36Zm4.22-9.45h-.18v.95h-.71v-2.68h.86c.72 0 1.07.26 1.07.78a.79.79 0 0 1-.44.71l.77 1.14h-.81Zm1 9a4.06 4.06 0 0 0 .79.27 3.23 3.23 0 0 0 .75.1 1.1 1.1 0 0 0 .68-.18.66.66 0 0 0 .24-.55.62.62 0 0 0-.25-.53 1.17 1.17 0 0 0-.72-.19 2.76 2.76 0 0 0-.81.14l-.58-.29.22-3.09H33v1.32h-2l-.07.77a2.56 2.56 0 0 1 .44-.06h.24a1.74 1.74 0 0 1 .91.24 1.51 1.51 0 0 1 .64.66 2.07 2.07 0 0 1 .22 1 1.88 1.88 0 0 1-.59 1.5 2.62 2.62 0 0 1-1.79.53 3.85 3.85 0 0 1-1.67-.32Zm2.13-9.74v.57h-.81v.49h.85v.58H30v-2.63h1.56v.57h-.86v.42Zm1.14-.21v1.85H32v-2.63h.93l1 1.83v-1.83h.63v2.63h-.93Zm4-.78h.72v2.63h-.72v-1.07h-.85v1.07h-.72v-2.63h.72v1h.82ZM34.94 14.3l.82.07.12.81s-3.51 3.93-4 4.36a2.43 2.43 0 0 1-.86.63.58.58 0 0 0-.49.51 1.15 1.15 0 0 1-.32.82.67.67 0 0 1-1.11-.18c-.34-.67.47-1.09.77-1.13a.71.71 0 0 0 .61-.64 2.7 2.7 0 0 1 .53-1Zm-7.76 3c.46.54.66.36.66.36a2.47 2.47 0 0 1-.1-3.12c0 .5.24.6.24.6A3 3 0 0 1 30.39 13c-1.29.81-.1 2.9-.1 2.9a1.75 1.75 0 0 1 .45-1.12 6.13 6.13 0 0 0 .19 2 1.61 1.61 0 0 1-.36 1.74.93.93 0 0 0-.35.6c0-.1.19-.23.19-.23 0 1.4-.68 1.2-.68 1.2 0-.56-.46-.49-1-.58a.82.82 0 0 1-.66-.53c.2.1.3 0 .3 0-1.48-.54-1.19-1.71-1.19-1.71Zm-2.51 7.55h.71v1h.83v-1h.71v2.63h-.71v-1.1h-.83v1.07h-.71Zm-2.11 0h1l.87 2.64h-.83l-.13-.49h-.85l-.13.49h-.79Zm-2.56 0h1.56v.57h-.86v.51h.79v.57h-.79v1H20Zm26.82 24.39H16.08a3.11 3.11 0 0 1 0-6.19h30.74Z" fill="currentcolor"/></svg><svg id="login" xmlns="http://www.w3.org/2000/svg" viewBox="11 9 34 40"><path fill="currentcolor" d="m22.9 35.24 3.96-3.97H11.73v-3.71h15.13l-4.01-4.01 2.63-2.62 5.86 5.87.01-.01 2.62 2.63-1.85 1.85h-.01l-6.59 6.6-2.62-2.63z"/><path fill="currentcolor" d="M44.26 10H15.84v15.56h3.71V13.72h21.01v31H19.55V33.27h-3.71v15.17h28.43V10h-.01z"/></svg><svg id="logout" xmlns="http://www.w3.org/2000/svg" viewBox="16 9 34 40"><path fill="currentcolor" d="m38.71 35.24 3.96-3.97H27.54v-3.71h15.13l-4.01-4.01 2.62-2.62 5.87 5.87v-.01l2.63 2.63-1.86 1.85-6.59 6.6-2.62-2.63z"/><path d="m41.28 20.92 5.87 5.88 2.63 2.63-1.86 1.85-6.59 6.6-2.62-2.63 4-4H27.54v-3.69h15.13l-4-4 2.62-2.63" fill="currentcolor"/><path fill="currentcolor" d="M41.37 40.66v4.06H20.36v-31h21.01v4.46l3.71 3.71V10H16.65v38.44h28.43V36.95l-3.71 3.71z"/></svg><svg id="megaphone" xmlns="http://www.w3.org/2000/svg" viewBox="10 11 39 39"><path fill="currentcolor" d="M17.52 36.09 19 41.76h2.02l2.05 7.86 3.76-1.03v-3.2L24 36.09h-6.48z"/><path d="M14.46 21.94s-3.72.06-3.72 5.82 3.72 5.82 3.72 5.82h12.29V21.94Z" fill="currentcolor" opacity=".75"/><path d="M47.12 11.07a2.75 2.75 0 0 0-1.77.66c-5.62 4.32-9.62 8.72-15.63 9.82-.59.15-3 .39-3 .39v11.65s2.36.29 3 .45c6 1.1 10 5.5 15.62 9.82.84.81 2.33.65 3.39.66V11.07Z" fill="currentcolor"/></svg><svg id="menu" xmlns="http://www.w3.org/2000/svg" viewBox="12 15 36 30"><path fill="currentcolor" d="M12.99 15.29h34.02v5.23H12.99zm0 12.09h34.02v5.23H12.99zm0 12.09h34.02v5.23H12.99z"/></svg><svg id="message-news" xmlns="http://www.w3.org/2000/svg" viewBox="9 12 43 39"><path d="M10 12.45v29h13.77v9l13.4-9h14v-29Zm22.3 23.17a2.38 2.38 0 0 1-1.76.62 2.43 2.43 0 0 1-1.78-.61 2.26 2.26 0 0 1-.64-1.73 2.33 2.33 0 0 1 .62-1.75 2.52 2.52 0 0 1 1.8-.59 2.43 2.43 0 0 1 1.77.61 2.69 2.69 0 0 1 0 3.45Zm-.07-6.43h-3.35l-.7-11.46h4.75Z" fill="currentcolor"/></svg><svg id="minus" xmlns="http://www.w3.org/2000/svg" viewBox="10 25 39 9"><path fill="currentcolor" d="M10.54 25.84h37.87v7.31H10.54z"/></svg><svg id="moon" xmlns="http://www.w3.org/2000/svg" viewBox="10 9 40 42"><path d="M41.86 39.25A18.39 18.39 0 0 1 27 10a20.18 20.18 0 1 0 22.4 27.63 18.41 18.41 0 0 1-7.54 1.62Z" fill="currentcolor"/></svg><svg id="notes" xmlns="http://www.w3.org/2000/svg" viewBox="12 8 35 44"><g fill="currentcolor"><path opacity=".5" d="M45.5 10.2H39v1.5h6.5v38.6h-31V11.7h6.8v-1.5H13v41.6h34V10.2z"/><path opacity=".5" d="M22.8 11.7v2.4h14.7V8.2H22.8z"/><path d="M39 11.7v3.9H21.3v-3.9h-6.8v38.6h31V11.7H39zM23.9 39.3h-3.6v-3.6h3.6v3.6zm0-6.4h-3.6v-3.6h3.6v3.6zm0-6.3h-3.6V23h3.6v3.6zm15.8 11.9H26.6v-2.1h13.2v2.1zm0-6.3H26.6V30h13.2v2.2zm0-6.3H26.6v-2.1h13.2v2.1z"/></g></svg><svg id="order-cancelled" xmlns="http://www.w3.org/2000/svg" viewBox="10 12 40 36"><path fill="currentcolor" opacity=".5" d="M49.59 12.05H25.52l-15.11 8.83h27.03v27.07l12.15-8.78V12.05z"/><path d="M10.41 20.88v27h27v-27ZM29 41.66l-5.08-5.09-5.07 5.06-2.2-2.2 5.07-5.06-5.09-5.08 2.19-2.19 5.09 5.08L29 27.12l2.2 2.2-5.06 5.06 5.08 5.09Z" fill="currentcolor"/></svg><svg id="order-coupon" xmlns="http://www.w3.org/2000/svg" viewBox="10 10 40 37"><path fill="currentcolor" d="M30.21 19.83v22.52l-2.45-3-2.45 3V19.83h-2.92v16.52l-2.44-3-2.45 3V19.83h-6.81v27h27v-27h-7.48z"/><path fill="currentcolor" opacity=".5" d="M49.84 10.93H25.76l-15.1 8.83h27.03v27.08l12.15-8.79V10.93z"/></svg><svg id="order-error" xmlns="http://www.w3.org/2000/svg" viewBox="9 11 41 37"><path d="M10.05 20.28v27h27v-27ZM19 44l4.53-10.26h-6.4l4-8.26h4.51l-2.75 5.37H30Z" fill="currentcolor"/><path fill="currentcolor" opacity=".5" d="M49.16 11.37H25.09L9.98 20.2h27.03v27.08l12.15-8.79V11.37z"/></svg><svg id="order-return" xmlns="http://www.w3.org/2000/svg" viewBox="10 12 40 36"><path fill="currentcolor" opacity=".5" d="M49.59 12.05H25.52l-15.11 8.83h27.03v27.07l12.15-8.78V12.05z"/><path d="M10.41 21v27h27V21Zm22.87 15H20.8l.42.43 3.84 3.83-2.27 2.27-8.15-8.14 8.1-8.09L25 28.61l-3.78 3.79-.43.43h12.49Z" fill="currentcolor"/></svg><svg id="order-shipped" xmlns="http://www.w3.org/2000/svg" viewBox="9 11 41 37"><path fill="currentcolor" opacity=".5" d="M49.28 11.57H25.21L10.1 20.4h27.03v27.08l12.15-8.79V11.57z"/><path d="M10 20.4v27h27v-27Zm10.21 21.09L14 35.67l2.63-2.6 3.52 3.26 10.12-10L33 28.86Z" fill="currentcolor"/></svg><svg id="order" xmlns="http://www.w3.org/2000/svg" viewBox="10 11 40 37"><path fill="currentcolor" d="M10.39 20.4h27v27h-27z"/><path fill="currentcolor" opacity=".5" d="M49.5 11.57H25.43L10.32 20.4h27.03v27.08l12.15-8.79V11.57z"/></svg><svg id="otp-authentification" xmlns="http://www.w3.org/2000/svg" viewBox="7 19 46 22"><g fill="currentcolor"><path d="M51.7 24.7c.1.2.1.3.2.5-.1-.2-.1-.4-.2-.5zm.2.7c0 .2.1.5.1.7 0-.2 0-.4-.1-.7zm-.1 9.6v.1-.1zm.2-.6v.1c-.1 0-.1-.1 0-.1z"/><path opacity=".25" d="M25.6 27.2h18.6v5.9H25.6z"/><path d="M48.8 30.2c0-2.8 1.2-5.1 2.8-5.7-1.2-2.8-4.8-4.8-8-4.8l-12.6.9-13.8-.9c-3.8 0-9.2 2.9-9.2 6.6v7.5c0 3.6 5.3 6.6 9.1 6.6l13.1-.9 13.5.9c3 0 6.5-1.9 7.8-4.5-1.5-.8-2.7-3-2.7-5.7zM16 23.5h1v7.8h-1v-7.8zm.5 12.4c-3 0-5.4-2.4-5.4-5.4 0-2.5 1.7-4.6 3.9-5.2v1c-1.7.6-2.9 2.2-2.9 4.2 0 2.5 2 4.4 4.5 4.4s4.4-2 4.4-4.4c0-2-1.3-3.6-3-4.2v-1c2.3.6 4 2.7 4 5.2 0 3-2.5 5.4-5.5 5.4zm27.7-2.8H25.6v-5.9h18.6v5.9z"/><path opacity=".75" d="M52 33.8v-7.5c0-.6-.1-1.2-.4-1.7-1.6.6-2.8 2.9-2.8 5.7 0 2.7 1.2 5 2.7 5.6.3-.8.5-1.4.5-2.1z"/></g></svg><svg id="paragraph-slash" xmlns="http://www.w3.org/2000/svg" viewBox="8 11 46 37"><path fill="currentcolor" d="m8.184 39.551 43.59-23.118 1.405 2.65L9.59 42.203z"/><path d="m39.42 28.63-3.57 1.9v16.79h3.57V28.63Zm-15.01.06 5.75-3.06V15h5.61v7.6l3.57-1.9v-5.77h4.65v-3.61h-18a8.76 8.76 0 0 0-1.66 17.37Zm5.76 4.87-3.57 1.9v11.86h3.57V33.56Z" fill="currentcolor" opacity=".75"/></svg><svg id="paragraph" xmlns="http://www.w3.org/2000/svg" viewBox="16 11 28 37"><path d="M16.61 20.77a8.78 8.78 0 0 0 8.77 8.77h.47V48h3.57V15.66h5.61V48h3.57a1.62 1.62 0 0 1 0-.22V15.62h4.66V12h-18a8.78 8.78 0 0 0-8.65 8.77Z" fill="currentcolor"/></svg><svg id="pause" xmlns="http://www.w3.org/2000/svg" viewBox="18 13 24 34"><path d="M18.4 13.5h6.9v33h-6.9zm16.2 0h6.9v33h-6.9z" fill="currentcolor"/></svg><svg id="pdf" xmlns="http://www.w3.org/2000/svg" viewBox="13 8 34 44"><path fill="currentcolor" opacity=".5" d="M24.12 8.17 13.6 19.91h10.52V8.17zm6.36 16.1H18.67v9.05h11.81Z"/><path d="M24.12 8.17v11.74H13.6v31.92h32.8V8.17Zm-5.45 16.14h11.81v9.05H18.67Zm16.81 19.11H18.59V42h16.89Zm5.93-2.52H18.59v-1.42h22.82Zm0-2.52H18.59V37h22.82Zm-8.34-5.06v-1.41h7.55v1.41Zm8.34-2.58h-8.34v-1.42h8.34Zm-8.34-2.52V26.8h6.59v1.42Zm8.34-2.61h-8.34v-1.42h8.34Zm0-5.74H26.48v-3.29h14.93Z" fill="currentcolor"/></svg><svg id="pencil" xmlns="http://www.w3.org/2000/svg" viewBox="10 10 40 41"><path d="m21.65 47.09-8.53-8.53-3 10a1.31 1.31 0 0 0 1.65 1.63Z" fill="currentcolor" opacity=".5"/><path fill="currentcolor" d="M34.82 16.87 13.17 38.61l8.48 8.48 21.7-21.69-8.53-8.53zm10.29 6.76 4.79-4.79-8.56-8.55-4.77 4.79 8.54 8.55zM10.92 45.89l-.79 2.64a1.31 1.31 0 0 0 1.65 1.63l2.6-.81Z"/></svg><svg id="person" xmlns="http://www.w3.org/2000/svg" viewBox="13 9 35 42"><g fill="currentcolor"><path d="M21.9 28.9c-4.7 1.5-8.6 4.3-8.6 8v10.7s6.7 3 16.9 3 15-2 16.9-3V36.9c0-3.7-4-6.5-8.6-8-2.3 1.8-5.1 2.9-8.3 2.9s-6-1-8.3-2.9z"/><circle cx="30.2" cy="18.7" r="9.4"/></g></svg><svg id="personae" xmlns="http://www.w3.org/2000/svg" viewBox="9 11 42 40"><g fill="currentcolor"><path d="M28.6 29.8c.1 0 .2-.1.3-.1-.1-.1-.1-.2-.2-.3 0 .2 0 .3-.1.4zM16 35.3c-3.3 1.1-6.1 3-6.1 5.6v7.5s4.7 2.1 11.9 2.1 10.5-1.4 11.9-2.1v-7.5c0-2.6-2.8-4.5-6.1-5.6-1.6 1.3-3.6 2.1-5.8 2.1s-4.2-.8-5.8-2.1z"/><circle cx="21.8" cy="28.2" r="6.6"/><path d="M33.5 11.6h3.4V15h-3.4zm5.9.7h10.7v1.9H39.4zm-5.9 5.3h3.4V21h-3.4zm5.9.8h10.7v1.9H39.4zm-5.9 5.3h3.4v3.4h-3.4zm5.9.7h10.7v1.9H39.4z"/></g></svg><svg id="phone-book" xmlns="http://www.w3.org/2000/svg" viewBox="11 9 38 41"><g fill="currentcolor"><path d="M47.5 22.4h-2.9V10.8h2.9c.6 0 1 .4 1 1v9.6c0 .6-.5 1-1 1z"/><path opacity=".75" d="M47.5 35.8h-2.9V24.2h2.9c.6 0 1 .4 1 1v9.7c0 .5-.5.9-1 .9z"/><path opacity=".5" d="M47.5 49.2h-2.9V37.6h2.9c.6 0 1 .4 1 1v9.6c0 .6-.5 1-1 1z"/><path d="M14.3 9.8v3.5h4.1v4.3h-4.1V23h4.1v4.3h-4.1V33h4.1v4.3h-4.1v5.4h4.1V47h-4.1v2.9h29V9.8h-29zM38 39.6c-.1.2-.5.5-.5.5-1.9 1.5-5.2 1.3-7.2-.3-1.8-1.4-2.9-3.3-4-5.2-2-3.3-2.4-6.8-2.2-10.5 0-.8.1-1.5.2-2.3.3-2.1 1.7-3.4 3.8-3.8.4-.1 1.4-.1 1.6-.1 0 .1 0 0 0 0 .8.2 1.2.8 1.1 1.7-.1 1.1-.2 2.2-.4 3.2-.1.4-.3.8-.6 1.1-.2.2-1 .6-1.2.7-.8.6-1.6 1.1-1.7 2.4-.1 2.7 1.7 5.8 3.1 8 .7 1.1 1.5.6 2.6.5.1 0 2.1-.9 3.2.1l1.8 1.8c.9 1 .9 1.1.4 2.2z"/><g opacity=".75"><path d="M11.4 14.5h5.8v1.9h-5.8z"/><path d="M17.2 14.5v1.9h-5.8v-1.9h5.8"/></g><g opacity=".75"><path d="M11.4 24.4h5.8v1.9h-5.8z"/><path d="M17.2 24.4v1.9h-5.8v-1.9h5.8"/></g><g opacity=".75"><path d="M11.4 34.2h5.8v1.9h-5.8z"/><path d="M17.2 34.2v1.9h-5.8v-1.9h5.8"/></g><g opacity=".75"><path d="M11.4 44.1h5.8V46h-5.8z"/><path d="M17.2 44.1V46h-5.8v-1.9h5.8"/></g></g></svg><svg id="phone" xmlns="http://www.w3.org/2000/svg" viewBox="16 8 28 44"><path fill="currentcolor" d="M42.6 48.7c-.2.4-.9.9-.9.9-3.5 2.8-9.6 2.4-13.3-.6-3.3-2.6-5.4-6.1-7.4-9.6-3.7-6.1-4.4-12.6-4.1-19.4 0-1.5.2-2.8.4-4.3.6-3.9 3.1-6.3 7-7 .7-.2 2.6-.2 3-.2 0 .2 0 0 0 0 1.5.4 2.2 1.5 2 3.1-.2 2-.4 4.1-.7 5.9-.2.7-.6 1.5-1.1 2-.4.4-1.9 1.1-2.2 1.3-1.5 1.1-3 2-3.1 4.4-.2 5 3.1 10.7 5.7 14.8 1.3 2 2.8 1.1 4.8.9.2 0 3.9-1.7 5.9.2l3.3 3.3c1.6 2.1 1.6 2.2.7 4.3z"/></svg><svg id="photo" xmlns="http://www.w3.org/2000/svg" viewBox="7 12 46 34"><circle cx="34" cy="30.65" r="8.44" fill="currentcolor"/><path d="M50.24 18.27h-5.35L41.52 13h-15l-3.37 5.29h-4.5l-1.3-2.5h-5.66l-1.3 2.5h-.63a1.89 1.89 0 0 0-1.89 1.9v2.91h7.47v18.17H7.87v1.86A1.88 1.88 0 0 0 9.76 45h40.48a1.88 1.88 0 0 0 1.89-1.89v-23a1.89 1.89 0 0 0-1.89-1.84ZM34 42.43a11.78 11.78 0 1 1 11.78-11.78A11.78 11.78 0 0 1 34 42.43Z" fill="currentcolor"/><path fill="currentcolor" opacity=".75" d="M7.87 23.1h7.47v18.17H7.87z"/></svg><svg id="pin" xmlns="http://www.w3.org/2000/svg" viewBox="11 8 42 42"><path fill="currentcolor" d="m36.62 31.62 10.26-11.98 4.08 2.71 1.65-1.65L40.16 8.26 38.51 9.9l2.7 4.07-11.98 10.26-7.1-2.61-2.43 2.43 17.12 17.11 2.42-2.43-2.62-7.11z"/><path fill="currentcolor" opacity=".75" d="M27.03 31.36 12.71 45.68l-1.45 3.93 3.83-1.36L29.5 33.83l-2.47-2.47z"/></svg><svg id="play-circle" xmlns="http://www.w3.org/2000/svg" viewBox="10 10 40 39"><path d="M30.07 10.48a19.26 19.26 0 1 0 19.19 19.26 19.22 19.22 0 0 0-19.19-19.26ZM24 42.11V17.86L41.12 30Z" fill="currentcolor"/></svg><svg id="play" xmlns="http://www.w3.org/2000/svg" viewBox="16 12 31 36"><path fill="currentcolor" d="M17 47.5v-35L47 30z"/></svg><svg id="plus" xmlns="http://www.w3.org/2000/svg" viewBox="10 9 40 40"><path fill="currentcolor" d="M49.97 32.22v-6.61H33.43V9.07h-6.61v16.54H10.28v6.61h16.54v16.54h6.61V32.22h16.54z"/></svg><svg id="power" xmlns="http://www.w3.org/2000/svg" viewBox="10 8 40 43"><path fill="currentcolor" d="M36 13.1v3.2c5.9 2.4 10.1 8.2 10.1 14.9 0 8.9-7.2 16.1-16.1 16.1s-16.1-7.2-16.1-16.1c0-6.8 4.2-12.6 10.1-14.9v-3.2c-7.6 2.5-13.1 9.7-13.1 18.1 0 10.5 8.6 19.1 19.1 19.1s19.1-8.6 19.1-19.1c0-8.4-5.5-15.6-13.1-18.1z"/><path fill="currentcolor" d="M28.5 8.1h3v22.3h-3z"/></svg><svg id="press" xmlns="http://www.w3.org/2000/svg" viewBox="9 15 42 30"><path d="M45.48 42V15.84H9.31V42a2.56 2.56 0 0 0 2.56 2.56H48A2.56 2.56 0 0 1 45.48 42ZM12.09 18.6h30.22v4.27H12.09Zm20.42 18.22V35.4h9.8v1.42Zm9.8 1.1v1.42h-9.8v-1.42Zm-9.8-3.62v-1.42h9.8v1.42Zm0-2.52v-1.42h9.8v1.42Zm0-2.52v-1.42h9.8v1.42Zm0-4h9.8v1.41h-9.8ZM13.16 44a2.56 2.56 0 0 1-1.07-1.95v-7.96L12 25.31h18.55l.05 15.3V42a2.71 2.71 0 0 0 .75 1.81l.13.11.15.13Zm19.35-3.6h9.8v1.42h-9.8Zm1 3.6-.16-.13-.13-.11a2.72 2.72 0 0 1-.53-.84h9.81a2.52 2.52 0 0 0 .94 1.08Z" fill="currentcolor"/><path d="M45.37 20.54v21.32a2.89 2.89 0 0 0 .79 1.88l.13.11a2.39 2.39 0 0 0 .26.21l.21.12.24.13.25.08.25.08h.53a2.67 2.67 0 0 0 2.66-2.66V20.54ZM13.16 44a2.56 2.56 0 0 1-1.07-1.95v-7.96L12 25.31h18.55l.05 15.3V42a2.71 2.71 0 0 0 .75 1.81l.13.11.15.13Z" fill="currentcolor" opacity=".5"/></svg><svg id="pricelist" xmlns="http://www.w3.org/2000/svg" viewBox="13 9 34 42"><path fill="currentcolor" d="M17.3 9.2c-1.7 0-3.6 1.3-3.7 3v34.7c0 2.5 2.2 3.9 4.5 3.9h28.2V9.2h-29zM22 28.4h1.6v-2.2H22v-2.7h2.1v-.1c1.4-4.5 4.3-6.7 8.8-6.7 1.9 0 3.7.4 5.1 1l-1.2 2.4c-.7-.3-2-.8-3.9-.8-3.5 0-4.9 1.6-5.9 4l-.1.1h6.8v2.7h-7.4v.1c0 .4-.1.8-.1 1.2v1h7.4V31h-6.8l.1.1c1.1 2.6 2.4 4 5.9 4 1.5 0 3.1-.3 4.1-.8l1.2 2.4c-1.4.6-3.3 1-5.3 1-4.5 0-7.3-2.2-8.7-6.7v-.1h-2v-2.5zm23.3 21.3H17.6c-1.5-.1-2.8-1.1-2.8-2.2s1.2-2.1 2.8-2.2h27.7v4.4z"/></svg><svg id="print" xmlns="http://www.w3.org/2000/svg" viewBox="8 11 44 38"><g fill="currentcolor"><g opacity=".75"><path d="M17.4 11.1h25.1v9.6H17.4z"/><path d="M42.6 11.1v9.6H17.4v-9.6h25.2"/></g><path d="M8.5 22.8V42h6l1-6.9.3-1.7h28.5l.3 1.7 1 6.9h6V22.8H8.5zm38.8 5.9c-.8 0-1.5-.7-1.5-1.5s.7-1.5 1.5-1.5 1.5.7 1.5 1.5-.7 1.5-1.5 1.5z"/><path opacity=".75" d="M42.6 35.4H17.4l-2 13.5h29.1l-1.9-13.5zM20 40.9l.4-2.4h19.2L40 41l-20-.1zm-.7 4.8.4-2.5h20.6l.4 2.5H19.3z"/><path opacity=".75" d="M39.6 38.4H20.4l-.4 2.5h20zm.7 4.8H19.7l-.4 2.5h21.4z"/></g></svg><svg id="puzzle" xmlns="http://www.w3.org/2000/svg" viewBox="9 13 43 34"><path d="M47.51 27c-2.33 0-3.73 2-4.62 2S41 26.22 41 23.74V13.69h-5.14c-2 .29-3.71 1.05-3.71 1.75 0 .9 2.07 2.3 2.07 4.63a4.27 4.27 0 0 1-4.11 4.49H29a4.27 4.27 0 0 1-4.11-4.49c0-2.33 2.07-3.73 2.07-4.63 0-.7-1.75-1.46-3.71-1.75H10v8.39c.29 2 1 3.7 1.75 3.7.9 0 2.3-2.06 4.63-2.06a4.26 4.26 0 0 1 4.48 4.1v1.1A4.26 4.26 0 0 1 16.38 33c-2.33 0-3.73-2-4.63-2-.71 0-1.46 1.75-1.75 3.7v11.61h8.93c2.34-.12 4.79-1 4.79-1.86s-2.07-2.3-2.07-4.63a4.26 4.26 0 0 1 4.11-4.48h1.09A4.26 4.26 0 0 1 31 39.82c0 2.33-2.07 3.73-2.07 4.63s2.46 1.74 4.8 1.86H41v-6.79c0-2.48 1-5.3 1.88-5.3s2.29 2.06 4.62 2.06a4.26 4.26 0 0 0 4.5-4.1v-1.1A4.27 4.27 0 0 0 47.51 27Z" fill="currentcolor"/></svg><svg id="qr-code" xmlns="http://www.w3.org/2000/svg" viewBox="9 9 42 42"><path fill="currentcolor" d="M33.12 15.2h1.44V9.9h-1.44v5.3zm7.74 3.87h5.31v-5.3h-5.31v5.3zm-9.68 30.97h14.99V48.6H42.3v-1.93h-1.94v-1.94h-1.43v1.94h-2.87v1.93h-3.44v-2.43h1.94v-5.81h1.93v-1.43h-3.87v-2.44h1.94v-3.93h4v-1.38h-5.94v-1.93h-1.44v1.93h-1.93v3.38h1.93v4.37h-4.36v-2.44h1.93v-1.43h-1.93v-3.88h-1.94v-2.43h2.87v-1.43h-2.87v-1.94h-4.34v1.44h2.91v2.43h-.94v1.43h.94v2.44h-1.94v1.44h3.87v5.8h1.94v1.94h5.8v2.43h-6.3V42.8h-1.44v3.37h1.94v2.43h-1.94v1.44h3.37V48.1h2.43v1.94z"/><path fill="currentcolor" d="M48.1 44.23v-2.9h2v-2.4h-2v-1.94h-5.8v-1.93h-1.44v1.93h-1.93v3.37h1.43v-1.93h2.44v3.87h3.87v1.93h1.43zM37 23h13V9.9H37V23Zm1.44-11.62H48.6v10.13H38.43V11.33Zm11.6 35.29H48.6v3.43h1.44v-3.43zm-30.97-5.81h-5.3v5.31h5.3v-5.31zm27.6-6.3h1.43v-1.44h-1.43v1.44z"/><path d="M23 37H9.9v13H23V37Zm-1.49 11.6H11.33V38.43h10.18V48.6Zm-7.74-29.53h5.3v-5.3h-5.3v5.3z" fill="currentcolor"/><path d="M9.9 23H23V9.9H9.9V23Zm1.43-11.62h10.18v10.13H11.33V11.33Zm19.35.45h-1.43v1.44h1.43v-1.44zM15.7 33.12v1.44h3.41v-2.44h-1.44v1H15.7zm9.68-19.85h1.44v-1.94h1.93V9.9h-3.37v3.37zm24.66 12.11h-3.37v1.94h-2.44v-1.94H42.8v1.94h-1.94v1.43h1.94v3.87h1.43v-3.87h2.44v1.93h3.37v-1.43H48.1v-2.43h1.94v-1.44zM9.9 34.56h3.43v-1.44H9.9v1.44zm27.09-7.74h1.44v-1.44h-1.44v1.44zm-27.09 0h1.43v-1.44H9.9v1.44zm3.87 1.5h-1.94v2.36h7.24v-3.36h-1.43v1.93H15.2v-2.43h1.94v-1.44h-3.37v2.94zm23.22 15.91h1.44V42.8h-1.44v1.43zm-9.67-24.66v1.44h1.93v1.94h1.43v-1.94h2.44v3.44h-1.94v2.37h3.38v-7.25h-1.94v-1.93h-1.94V15.7h-5.3v1.44h3.87v2.43h-1.93zm-1.94 5.31h1.44v-3.37h-1.44v3.37zm20.79 19.85H42.8v1.44h3.37v-1.44z" fill="currentcolor"/></svg><svg id="question" xmlns="http://www.w3.org/2000/svg" viewBox="18 11 24 38"><path fill="currentcolor" d="M28.9 40.7c-2.2 0-4 1.8-4 4s1.8 4 4 4 4-1.8 4-4-1.8-4-4-4zm10.6-24.8c-1.8-3-4.8-4.6-8.9-4.6-5 0-9.9 2.3-11.6 3.2l2.8 5.2c1.5-.8 5.6-2.5 8.8-2.5 1.8 0 3.1.6 3.8 1.7 1.4 2.4.6 3.7-3.8 6.7-1.1.7-2 1.3-2.7 2.1-1.7 1.9-2.4 4.7-2.2 8h5.9v-.1c-.2-2.1.2-3.5.7-4 .2-.2.8-.6 1.5-1.1 2.9-1.8 10.4-6.8 5.7-14.6z"/></svg><svg id="quote" xmlns="http://www.w3.org/2000/svg" viewBox="9 9 42 42"><path d="M35.78 17.3a4.7 4.7 0 0 0-1.56.32 8.54 8.54 0 0 1 5.4-6.62L39 9.5c-1.87.46-7.28 3.22-7.26 9.17-.13 2.9.84 6 4 6.08A3.65 3.65 0 0 0 39.58 21a3.74 3.74 0 0 0-3.8-3.7Zm10.88 0a4.75 4.75 0 0 0-1.56.32A8.54 8.54 0 0 1 50.5 11l-.58-1.5c-1.87.46-7.28 3.22-7.26 9.17-.13 2.9.84 6 4 6.08a3.65 3.65 0 0 0 3.8-3.75 3.74 3.74 0 0 0-3.8-3.7ZM24.22 42.7a4.7 4.7 0 0 0 1.56-.32 8.54 8.54 0 0 1-5.4 6.62l.62 1.5c1.87-.46 7.28-3.22 7.26-9.17.13-2.9-.84-6-4-6.08A3.65 3.65 0 0 0 20.42 39a3.74 3.74 0 0 0 3.8 3.7Zm-10.88 0a4.75 4.75 0 0 0 1.56-.32A8.54 8.54 0 0 1 9.5 49l.58 1.46c1.87-.46 7.28-3.22 7.26-9.17.13-2.9-.84-6-4-6.08A3.65 3.65 0 0 0 9.54 39a3.74 3.74 0 0 0 3.8 3.7Z" fill="currentcolor"/></svg><svg id="rename" xmlns="http://www.w3.org/2000/svg" viewBox="9 16 41 28"><path d="M10 16.09v27.12h40V16.09Zm12.42 23.1h-3v-3h3Zm5.42.12h-3v-3h3Zm5.41-.12h-3v-3h3ZM42 23.6h-1.71v12.63H42v3h-6.37v-3h1.66V23.6h-1.66v-3H42Z" fill="currentcolor"/></svg><svg id="ribbon" xmlns="http://www.w3.org/2000/svg" viewBox="14 6 32 47"><path d="m22.22 35.8 1.55 3 .11.2.21-.09 4.95-2v16l-3.23-3.24-.18-.18-.18.18-3.23 3.23V35.8" fill="currentcolor"/><path d="M37.79 35.8v14.37l-3.24-3.33-.18-.19-.18.19L31 50.17V36.85l4.95 2 .21.09.11-.2 1.56-3" fill="currentcolor" opacity=".75"/><path d="M42.06 24.27v-.09l3-4.69-4.38-3.41-.08-.08v-.1l-.75-5.5-5.55.21h-.1l-.08-.07L30 6.84l-4.11 3.73-.08.07h-.1l-5.55-.21-.75 5.5V16l-.09.06-4.38 3.41 3 4.69.05.09v.1l-1.25 5.45L22 31.49h.1l.05.09 2.58 4.92 5.15-2.1h.18l5.14 2.1 2.59-4.92v-.09h.1l5.29-1.69L42 24.37Zm-12 6.4a8.4 8.4 0 1 1 8.4-8.4 8.41 8.41 0 0 1-8.46 8.4Z" fill="currentcolor"/><path d="M30 13.87a8.4 8.4 0 1 1-8.4 8.4 8.41 8.41 0 0 1 8.4-8.4" fill="currentcolor" opacity=".25"/></svg><svg id="scale" xmlns="http://www.w3.org/2000/svg" viewBox="10 10 40 40"><path d="M49.2 10.78H10.78v38.44h38.44V10.78ZM45.5 45.5h-31v-31h31Z" fill="currentcolor"/><path fill="currentcolor" d="M41.67 18.33H29.66v3.72h5.67L22.04 35.33v-5.61h-3.72l.01 11.95h12.01v-3.72h-5.67l13.29-13.28v5.61h3.71V18.33z"/></svg><svg id="search" xmlns="http://www.w3.org/2000/svg" viewBox="9 9 42 42"><path d="M34.89 9.38A15.66 15.66 0 0 0 21.8 33.65l.13.24L9.44 46.38l4.24 4.24L26.2 38.11l.4.22a15.66 15.66 0 1 0 8.29-28.95Zm0 26.74A11.07 11.07 0 1 1 46 25.05a11.08 11.08 0 0 1-11.11 11.07Z" fill="currentcolor"/><path d="M35.09 16.48a8.77 8.77 0 0 0-8.76 8.76c0 4.83 13.59-8.76 8.76-8.76Z" fill="currentcolor" opacity=".5"/></svg><svg id="send" xmlns="http://www.w3.org/2000/svg" viewBox="9 11 43 37"><path fill="currentcolor" d="M51.4 29 9.28 11.94V25.7L36.91 29 9.28 32.3v14.76L51.4 29z"/></svg><svg id="share" xmlns="http://www.w3.org/2000/svg" viewBox="9 10 40 40"><path fill="currentcolor" opacity=".75" d="m22.3 28.8 14.9-7.7c-.8-.9-1.4-1.9-1.6-3.1l-14.9 7.7c.8.8 1.4 1.9 1.6 3.1z"/><circle fill="currentcolor" cx="41.9" cy="16.7" r="6.4"/><circle fill="currentcolor" cx="16.1" cy="30" r="6.4"/><path fill="currentcolor" opacity=".75" d="m36.8 39.5-14.5-8.1c-.3 1.2-.9 2.2-1.7 3.1l15 8.3c0-1.2.5-2.3 1.2-3.3z"/><circle fill="currentcolor" cx="41.9" cy="43.3" r="6.4"/></svg><svg id="shield-check" xmlns="http://www.w3.org/2000/svg" viewBox="14 9 33 42"><path fill="currentcolor" d="M30.4 9.8s-10.7 3.6-15.9 3.6v22.5c0 7.3 15.9 14.7 15.9 14.7s15.9-8.3 15.9-14.7V13.4c-5.2-.1-15.9-3.6-15.9-3.6zm-1 25.1-.8.8-1.6 1.6-2.4-2.3-4.9-4.7 2.4-2.3 4.9 4.7L38.7 21l2.4 2.3-11.7 11.6z"/></svg><svg id="shield-slash" xmlns="http://www.w3.org/2000/svg" viewBox="7 9 46 42"><path fill="currentcolor" d="m7.502 40.23 43.59-23.117 1.405 2.65L8.907 42.88z"/><path d="m51.09 17.11 1.41 2.65L8.91 42.89 7.5 40.24l43.59-23.13" fill="currentcolor"/><path d="M45.88 17.62v-4.47c-5.2-.1-15.9-3.6-15.9-3.6s-10.7 3.6-15.9 3.6v21.34ZM16.6 41.07c4.49 5.14 13.4 9.28 13.4 9.28s15.9-8.3 15.9-14.7V25.54Z" fill="currentcolor" opacity=".75"/></svg><svg id="shield-warning" xmlns="http://www.w3.org/2000/svg" viewBox="14 9 32 42"><path fill="currentcolor" d="M30 9.6s-10.7 3.6-15.9 3.6v22.5C14.1 43 30 50.4 30 50.4s15.9-8.3 15.9-14.7V13.2C40.7 13.1 30 9.6 30 9.6zm2 30h-4v-4h4v4zm0-7.2h-4V18.1h4v14.3z"/></svg><svg id="shield-x" xmlns="http://www.w3.org/2000/svg" viewBox="14 9 32 42"><path d="M30 9.55s-10.7 3.6-15.9 3.6v22.5c0 7.3 15.9 14.7 15.9 14.7s15.9-8.3 15.9-14.7v-22.5c-5.22-.1-15.9-3.6-15.9-3.6Zm5.08 27.68L30 32.14l-5.08 5.06-2.2-2.2 5.06-5.07-5.08-5.07 2.19-2.19L30 27.75l5-5.06 2.2 2.2L32.17 30l5.08 5Z" fill="currentcolor"/></svg><svg id="slash-square" xmlns="http://www.w3.org/2000/svg" viewBox="11 10 39 40"><path d="M50 10.78H11.6v38.44H50V10.78Zm-6.17 3.72L15.32 43V14.5Zm-25.76 31 28.25-28.24V45.5Z" fill="currentcolor"/></svg><svg id="smartphone" xmlns="http://www.w3.org/2000/svg" viewBox="17 9 26 42"><g fill="currentcolor"><path d="M40.2 9.7H19.8c-1.1 0-2 .9-2 2v36.7c0 1.1.9 1.9 1.9 1.9H40c1.1 0 2-.9 2-2V11.6c.1-1-.8-1.9-1.8-1.9zM30 11c.5 0 .9.4.9.9s-.4.9-.9.9-.9-.4-.9-.9.4-.9.9-.9zm3.2 37.2h-6.1v-1.6h6.1v1.6zm7.1-3.5H20V14.1h20.3v30.6z"/><path opacity=".25" d="M20 14.1h20.3v30.6H20z"/></g></svg><svg id="sound-off" xmlns="http://www.w3.org/2000/svg" viewBox="10 14 42 32"><path d="m49.6 23.1-5.2 5.2-5.2-5.2-.1-.1-.1.1-1.5 1.5-.1.1.1.1 5.2 5.2-5.2 5.2-.1.1.1.1 1.5 1.5.1.1.1-.1 5.2-5.2 5.2 5.2.1.1.1-.1 1.5-1.5.1-.1-.1-.1-5.2-5.2 5.2-5.2.1-.1-.1-.1-1.7-1.5zm-20.7-8.3-10.6 8.9h-7.6v12.6h7.6l10.6 8.9h2.5V14.8z" fill="currentcolor"/></svg><svg id="sound-on" xmlns="http://www.w3.org/2000/svg" viewBox="10 14 42 32"><path fill="currentcolor" d="m28.8 14.8-10.6 8.9h-7.6v12.6h7.6l10.6 8.9h2.5V14.8z"/><g fill="currentcolor"><path d="M38 34.8 36.3 33c.8-.8 1.2-1.9 1.2-3s-.4-2.2-1.2-3l1.8-1.8c1.3 1.3 2 3 2 4.8s-.8 3.5-2.1 4.8zm4 4L40.3 37c3.9-3.9 3.9-10.2 0-14l1.8-1.8c4.8 4.9 4.8 12.7-.1 17.6z"/><path d="M46.1 42.8 44.3 41c6.1-6.1 6.1-16 0-22.1l1.8-1.8c7 7.2 7 18.6 0 25.7z"/></g></svg><svg id="star-fill" xmlns="http://www.w3.org/2000/svg" viewBox="10 9 40 39"><path fill="currentcolor" fill-rule="evenodd" d="M30 39.41 42.34 48l-4.35-14.4 11.99-9.09-15.04-.3L30 10l-4.94 14.21-15.04.3 11.99 9.09L17.65 48 30 39.41z"/></svg><svg id="star" xmlns="http://www.w3.org/2000/svg" viewBox="10 9 40 39"><path d="m30 17.17 2.88 8.28.32.93h1l8.76.17-7 5.3-.78.59.28.94L38 41.79l-7.2-5-.8-.56-.81.56-7.19 5 2.54-8.39.28-.94-.82-.59-7-5.3 8.76-.17h1l.32-.93 2.92-8.3M30 10l-4.94 14.21-15 .3L22 33.6 17.65 48 30 39.41 42.35 48 38 33.6l12-9.09-15-.3L30 10Z" fill="currentcolor"/></svg><svg id="statistics" xmlns="http://www.w3.org/2000/svg" viewBox="11 11 38 38"><path d="M40.22 11.28v5.53l-1 1.57v-7.1H30.5V29.2l-1-.59V11.28h-9V33l-1 1.61V11.28h-8.22V38.2L17 40.59l8.28-13.32 6.89 4.08 9.46-14.89a1.71 1.71 0 0 1 1.46-.82h.11a1.72 1.72 0 0 1 1.72 1.72v.11a1.74 1.74 0 0 1-.27.93L33.3 36.24 26.44 32l-8.05 13-7.11-3v6.72h8.23v-3.67l1-1.6v5.27h9V35.08l1 .61v13h8.72V28.8l1-1.57v21.49h8.5V11.28Z" fill="currentcolor"/><path d="M20.51 33.03V11.28h-1v23.36l1-1.61zm-1 12.02v3.67h1v-5.27l-1 1.6zM30.5 29.2V11.28h-1v17.33l1 .59zm-1 5.88v13.64h1V35.69l-1-.61zm9.72-6.28v19.92h1V27.23l-1 1.57zm1-11.99v-5.53h-1v7.1l1-1.57z" opacity=".75" fill="currentcolor"/></svg><svg id="stop" xmlns="http://www.w3.org/2000/svg" viewBox="13 13 34 34"><path fill="currentcolor" d="M13.5 13.5h33v33h-33z"/></svg><svg id="sun" xmlns="http://www.w3.org/2000/svg" viewBox="9 9 42 42"><path d="M26.14 17.58 22.79 9.5l-2.19.91L24 18.5a13.17 13.17 0 0 1 2.14-.92ZM18.5 24l-8.09-3.4-.91 2.19 8.08 3.35A13.17 13.17 0 0 1 18.5 24Zm17.55-5.5 3.35-8.09-2.19-.91-3.35 8.08a13.17 13.17 0 0 1 2.19.92Zm6.37 7.64 8.08-3.35-.91-2.19L41.5 24a13.17 13.17 0 0 1 .92 2.14Zm-.92 9.91 8.09 3.35.91-2.19-8.08-3.35a13.17 13.17 0 0 1-.92 2.19Zm-7.64 6.37 3.35 8.08 2.19-.91-3.35-8.09a13.17 13.17 0 0 1-2.19.92ZM24 41.5l-3.4 8.09 2.19.91 3.35-8.08A13.17 13.17 0 0 1 24 41.5Zm-6.42-7.64L9.5 37.21l.91 2.19 8.09-3.35a13.17 13.17 0 0 1-.92-2.19Z" fill="currentcolor"/><circle cx="30" cy="30" r="8.5" fill="currentcolor"/></svg><svg id="table" xmlns="http://www.w3.org/2000/svg" viewBox="9 12 42 36"><path d="M9.87 12.64v34.72h40.26V12.64Zm12.64 16.47v6.58H12.4v-6.58ZM12.4 26.59V20h10.11v6.59Zm10.11 11.63v6.58H12.4v-6.58Zm12.92 0v6.58H25v-6.58ZM25 35.69v-6.58h10.4v6.58Zm10.4-9.1H25V20h10.4ZM47.6 44.8H38v-6.58h9.6Zm0-9.11H38v-6.58h9.6Zm0-9.1H38V20h9.6Z" fill="currentcolor"/></svg><svg id="tablet" xmlns="http://www.w3.org/2000/svg" viewBox="15 10 30 40"><g fill="currentcolor"><path d="M42.9 10.2H17.1c-1.1 0-1.9.9-1.9 1.9v35.7c0 1.1.9 1.9 1.9 1.9h25.8c1.1 0 1.9-.9 1.9-1.9V12.1c.1-1-.8-1.9-1.9-1.9zm-11.6 38h-2.6v-2.6h2.6v2.6zm11.4-4H17.3V13.6h25.4v30.6z"/><path opacity=".25" d="M17.3 13.6h25.4v30.6H17.3z"/></g></svg><svg id="text-center" xmlns="http://www.w3.org/2000/svg" viewBox="11 13 37 34"><path fill="currentcolor" opacity=".5" d="M27.53 27.24h3.94v5.52h-3.94zm0-9.53h3.94v5.52h-3.94zm0 19.06h3.94v5.52h-3.94z"/><path fill="currentcolor" d="M31.47 13.7H15.52v4.01h27.96V13.7H31.47zm0 9.53H11.5v4.01h36v-4.01H31.47zm0 9.53h-18.3v4.01h32.66v-4.01H31.47zm0 9.53H20.1v4.01h18.8v-4.01h-7.43z"/></svg><svg id="text-file" xmlns="http://www.w3.org/2000/svg" viewBox="14 8 32 44"><path fill="currentcolor" opacity=".5" d="M24.36 8.15 14.14 19.89h10.22V8.15z"/><path d="M24.32 8.17v11.74H14.11v31.92H46V8.17ZM19.11 33h12.65v3.58H19.11Zm19.82 9.1H19.11v-3.62h19.82Zm2-11H19.11v-3.65H41Z" fill="currentcolor"/></svg><svg id="text-indent" xmlns="http://www.w3.org/2000/svg" viewBox="12 13 36 34"><path fill="currentcolor" d="m21.56 29.98-6.84-6.84-2.13 2.13 4.71 4.71-4.75 4.75 2.13 2.13 6.88-6.88z"/><path fill="currentcolor" opacity=".75" d="M12.55 13.7h34.9v4h-34.9z"/><path fill="currentcolor" d="M26.06 23.23h21.39v4H26.06zm0 9.54h21.39v4H26.06z"/><path fill="currentcolor" opacity=".75" d="M12.55 42.3h34.9v4h-34.9z"/></svg><svg id="text-left" xmlns="http://www.w3.org/2000/svg" viewBox="12 13 37 34"><path fill="currentcolor" opacity=".5" d="M13 36.77h3.94v5.52H13zm0-19.06h3.94v5.52H13zm0 9.53h3.94v5.52H13z"/><path fill="currentcolor" d="M40.95 13.7v4.01H13V13.7h27.95zm-24.01 9.53H49v4.01H13v-4.01h3.94zm0 9.53h28.72v4.01H13v-4.01h3.94zm0 9.53H31.8v4.01H13v-4.01h3.94z"/></svg><svg id="text-outdent" xmlns="http://www.w3.org/2000/svg" viewBox="12 13 36 34"><path fill="currentcolor" d="m12.55 29.98 6.84-6.84 2.13 2.13-4.71 4.71 4.75 4.75-2.13 2.13-6.88-6.88z"/><path fill="currentcolor" opacity=".75" d="M12.55 13.7h34.9v4h-34.9z"/><path fill="currentcolor" d="M26.06 23.23h21.39v4H26.06zm0 9.54h21.39v4H26.06z"/><path fill="currentcolor" opacity=".75" d="M12.55 42.3h34.9v4h-34.9z"/></svg><svg id="text-right" xmlns="http://www.w3.org/2000/svg" viewBox="10 13 37 34"><path fill="currentcolor" opacity=".5" d="M43.06 36.77H47v5.52h-3.94zm0-19.06H47v5.52h-3.94zm0 9.53H47v5.52h-3.94z"/><path fill="currentcolor" d="M19.05 13.7v4.01H47V13.7H19.05zm24.01 9.53H11v4.01h36v-4.01h-3.94zm0 9.53H14.34v4.01H47v-4.01h-3.94zm0 9.53H28.2v4.01H47v-4.01h-3.94z"/></svg><svg id="three-dots" xmlns="http://www.w3.org/2000/svg" viewBox="11 25 38 10"><circle cx="15.65" cy="30" r="4.15" fill="currentcolor"/><circle cx="30" cy="30" r="4.15" fill="currentcolor"/><circle cx="44.35" cy="30" r="4.15" fill="currentcolor"/></svg><svg id="trash" xmlns="http://www.w3.org/2000/svg" viewBox="13 7 33 43"><path fill="currentcolor" d="M35 10V8H25v2l-11 1v5h32v-5l-11-1zM16 20l2 30h24l2-30Zm5 25.17L20 26h4l1 19.17Zm7 0V26h4v19.17Zm7 0L36 26h4l-1 19.17Z"/></svg><svg id="truck" xmlns="http://www.w3.org/2000/svg" viewBox="8 16 45 28"><g fill="currentcolor"><circle opacity=".75" cx="44.4" cy="39.7" r="3.5"/><path d="M46.3 21.2h-7.4v18c.2-2.8 2.6-5 5.5-5s5.2 2.2 5.5 5h2.6V30l-6.2-8.8zm-5.5 7.9v-6h4.4l4 6h-8.4z"/><circle opacity=".75" cx="16.8" cy="39.7" r="3.5"/><path d="M8.3 16.9v22.9h3c0-3 2.5-5.5 5.5-5.5s5.5 2.5 5.5 5.5H37V16.9H8.3z"/></g></svg><svg id="type-bold" xmlns="http://www.w3.org/2000/svg" viewBox="19 15 23 30"><path d="M19.81 15.5h9q6.17 0 9 1.76a6.1 6.1 0 0 1 2.79 5.58 7 7 0 0 1-1.22 4.26 4.93 4.93 0 0 1-3.25 2v.2a6.36 6.36 0 0 1 4 2.3 7.43 7.43 0 0 1 1.22 4.48 7.39 7.39 0 0 1-2.86 6.19 12.43 12.43 0 0 1-7.79 2.22H19.81ZM26 27h3.57a6.49 6.49 0 0 0 3.62-.77 2.87 2.87 0 0 0 1.12-2.56 2.56 2.56 0 0 0-1.22-2.39 7.87 7.87 0 0 0-3.86-.72H26Zm0 4.88v7.56h4a5.89 5.89 0 0 0 3.74-1 3.58 3.58 0 0 0 1.21-3c0-2.4-1.71-3.61-5.15-3.61Z" fill="currentcolor"/></svg><svg id="type-h1" xmlns="http://www.w3.org/2000/svg" viewBox="13 19 34 22"><path fill="currentcolor" d="M25.09 27.04h-5.53v-7.41h-6.18v20.75h6.18v-8.16h5.53v8.16h6.18V19.63h-6.18v7.41zm16.15-7.41L34 25.54l3.28 4 2.57-2.12c.21-.19.41-.37.59-.56v13.52h6.24V19.63Z"/></svg><svg id="type-h2" xmlns="http://www.w3.org/2000/svg" viewBox="13 19 35 22"><path fill="currentcolor" d="M25.46 27.89H17.9v-7.73h-4.43v19.97h4.43v-8.51h7.56v8.51h4.42V20.16h-4.42v7.73zm13.21 8.48L41.16 34a36.82 36.82 0 0 0 3.56-3.59 10.19 10.19 0 0 0 1.5-2.48 7 7 0 0 0 .49-2.6 5.13 5.13 0 0 0-.81-2.85 5.33 5.33 0 0 0-2.25-1.93 7.71 7.71 0 0 0-3.31-.68 10.71 10.71 0 0 0-2.57.28 8.68 8.68 0 0 0-2.12.8 14.52 14.52 0 0 0-2.43 1.76l-.1.08 2.35 2.78.08.1.09-.08a11 11 0 0 1 2.23-1.48A5 5 0 0 1 40 23.6a2.44 2.44 0 0 1 1.66.55 2.14 2.14 0 0 1 .62 1.68 4 4 0 0 1-.28 1.49 6.48 6.48 0 0 1-1 1.58c-.44.57-1.4 1.62-2.86 3.11l-5 5v3.08h14v-3.72Z"/></svg><svg id="type-h3" xmlns="http://www.w3.org/2000/svg" viewBox="14 19 33 22"><path fill="currentcolor" d="M27.12 28.33h-9.61v-8.17h-2.73v19.69h2.73v-9.03h9.61v9.03h2.73V20.16h-2.73v8.17zm17.97 2.57a5.16 5.16 0 0 0-2.69-1.4 5 5 0 0 0 2.2-1.4 4.68 4.68 0 0 0 1.09-3.17 4.57 4.57 0 0 0-1.64-3.71 6.91 6.91 0 0 0-4.51-1.34 10.25 10.25 0 0 0-3.33.55 9.64 9.64 0 0 0-2.8 1.5l-.19.15 1.39 1.85.2-.12a10.47 10.47 0 0 1 2.48-1.23 7.87 7.87 0 0 1 2.31-.33 3.75 3.75 0 0 1 2.45.74 2.46 2.46 0 0 1 .88 2 3 3 0 0 1-1.21 2.56 5.61 5.61 0 0 1-3.41.94h-2.17v2.37h2.14c3.53 0 5.24 1.06 5.24 3.25 0 2.45-1.54 3.65-4.73 3.65a11.84 11.84 0 0 1-2.61-.32 12.06 12.06 0 0 1-2.61-.92l-.36-.18V39l.14.06a9.5 9.5 0 0 0 2.53.83 15.59 15.59 0 0 0 2.84.24 9 9 0 0 0 5.56-1.53 5.28 5.28 0 0 0 2-4.42 4.57 4.57 0 0 0-1.19-3.28Z"/></svg><svg id="type-h4" xmlns="http://www.w3.org/2000/svg" viewBox="14 20 34 20"><path d="M29 39.89h-1.35v-9.67h-11.5v9.67h-1.37V20.21h1.37V29h11.5v-8.79H29Zm18.18-5.02h-3.39v5h-1.27v-5H32.4V34l9.76-13.86h1.63v13.58h3.39Zm-4.66-1.15.08-12.46c-.18.34-.73 1.18-1.65 2.53l-7 9.93Z" fill="currentcolor"/></svg><svg id="type-italic" xmlns="http://www.w3.org/2000/svg" viewBox="21 14 19 31"><path fill="currentcolor" d="M39.77 16.88V15H26.64v1.88h4.81l-5.59 26.25h-4.84V45h13.13v-1.87h-4.83l5.58-26.25h4.87z"/></svg><svg id="type-underline" xmlns="http://www.w3.org/2000/svg" viewBox="18 13 24 34"><path d="M39.6 13.5v16a8.7 8.7 0 0 1-2.6 6.68 9.8 9.8 0 0 1-7 2.42c-3 0-5.29-.81-6.92-2.44a9 9 0 0 1-2.45-6.7v-16h2.88v16.2a6.36 6.36 0 0 0 1.69 4.76 6.82 6.82 0 0 0 5 1.66 6.61 6.61 0 0 0 4.8-1.67 6.42 6.42 0 0 0 1.69-4.79V13.5ZM18.96 43.71h22.08v2.79H18.96z" fill="currentcolor"/></svg><svg id="unlock" xmlns="http://www.w3.org/2000/svg" viewBox="16 6 34 43"><path d="M47.3 10.64a10.71 10.71 0 0 0-15-1.72l-5.94 4.77c.46.51 1.85 2.17 2.38 2.75l5.84-4.68c3.62-2.9 7-2.5 9.91 1.16s2.59 7-1 9.92l-5.38 4.31c-3-.17-6.25-.34-7.91-.34-3.08 0-11.49.55-13.67.69v20.57c2.14.19 10.45.92 13.53.92s11.37-.73 13.53-.93V27.5h-.09l2.27-1.81a10.7 10.7 0 0 0 1.53-15.05Zm-16 26.67.42 6.52h-3.5l.42-6.52a2.54 2.54 0 1 1 2.66 0Z" fill="currentcolor"/></svg><svg id="upload" xmlns="http://www.w3.org/2000/svg" viewBox="10 9 40 41"><path fill="currentcolor" d="m40.68 29.13-7.2-7.2v22.11h-6.74v-22.1l-7.28 7.27-4.76-4.76L30.11 9.04l15.33 15.33-4.76 4.76zm8.61 20.62H10.85v-3.71h38.42l.02 3.71z"/></svg><svg id="user-accounts" xmlns="http://www.w3.org/2000/svg" viewBox="10 11 40 33"><path fill="currentcolor" opacity=".5" d="M42.49 15.1v-3.25h-4v3.25H21.51v-3.25h-4v3.25h-6.58v3.64h38.14V15.1h-6.58z"/><path d="m25.61 27.91.15-.06s-.05-.08-.07-.13-.05.13-.08.19Zm-6.17 3.68c-1.61.53-3 1.48-3 2.75V37a16.84 16.84 0 0 0 5.8 1 13.66 13.66 0 0 0 5.81-1v-2.66c0-1.27-1.36-2.22-3-2.75a4.48 4.48 0 0 1-5.67 0Z" fill="currentcolor"/><circle cx="22.27" cy="27.1" r="3.22" fill="currentcolor"/><path d="M10.93 18.65V44h38.14V18.65Zm22.44 9h7.37v3.58h-7.37ZM30 40.59H14.16v-19H30Zm14.81-3.88H33.27v-3.59h11.54Zm1.28-11H33.37v-3.62h12.72Z" fill="currentcolor"/></svg><svg id="user-contacts" xmlns="http://www.w3.org/2000/svg" viewBox="10 10 41 41"><path d="m29.17 29.65.32-.12c-.06-.08-.11-.17-.16-.25-.05.12-.1.25-.16.37Zm-12.63 5.49c-3.29 1.08-6.07 3-6.07 5.62v7.55a32.18 32.18 0 0 0 11.88 2.08c7.14 0 10.54-1.43 11.87-2.08v-7.55c0-2.58-2.77-4.54-6.07-5.62a9.17 9.17 0 0 1-11.61 0Z" fill="currentcolor"/><circle cx="22.35" cy="27.99" r="6.59" fill="currentcolor"/><path d="M37.93 22.16h-5.71v-12.1h18v12.1h-5.8l-6.52 4.35Z" fill="currentcolor"/></svg><svg id="users" xmlns="http://www.w3.org/2000/svg" viewBox="6 13 48 34"><path d="m30.87 26.7.35-.13-.17-.29c-.05.14-.11.28-.18.42Zm-6.56 5.42a10.23 10.23 0 0 1-2.73.38 10.35 10.35 0 0 1-7.36-3.09c-4 1.4-7.46 3.94-7.46 7.61v6.41s2 2.71 16.83 2.93V35.27a7.15 7.15 0 0 1 .72-3.15Z" fill="currentcolor"/><circle cx="21.58" cy="22.14" r="7.41" fill="currentcolor"/><path d="M33.36 28.94c-3.7 1.22-6.83 3.42-6.83 6.33v10.82h13.36c7.67 0 11.86-1.61 13.35-2.34v-8.48c0-2.91-3.12-5.11-6.83-6.33a10.3 10.3 0 0 1-13 0Z" fill="currentcolor"/><circle cx="39.89" cy="20.91" r="7.41" fill="currentcolor"/></svg><svg id="wifi" xmlns="http://www.w3.org/2000/svg" viewBox="8 14 44 32"><g fill="currentcolor"><path d="M35.5 39c-3-3-7.9-3-10.9 0l-2.1-2.1c4.2-4.2 11-4.2 15.2 0L35.5 39zm6.7-6.8c-6.7-6.7-17.7-6.7-24.4 0l-2.1-2.1c7.9-7.9 20.8-7.9 28.7 0l-2.2 2.1z"/><path d="M49 25.4c-5.1-5.1-11.8-7.9-19-7.9s-13.9 2.8-19 7.9l-2.1-2.1c5.6-5.6 13.1-8.7 21.1-8.7s15.5 3.1 21.1 8.7L49 25.4z"/><circle opacity=".5" cx="29.8" cy="42.9" r="2.5"/></g></svg><svg id="wrench" xmlns="http://www.w3.org/2000/svg" viewBox="11 9 41 41"><path d="M47.79 27c2.83-2.82 3.89-6.37 2.91-9.73l-.11-.38-7.29 7.32L38.46 22l-2.19-4.85 7.28-7.25-.42-.13c-3.34-1-6.87.1-9.68 2.91a10.08 10.08 0 0 0-2.26 11l-19 19a3.91 3.91 0 1 0 5.53 5.53l18.96-19A10.12 10.12 0 0 0 47.79 27ZM15.68 47.57a2 2 0 0 1-1.37 0 2.25 2.25 0 0 1-.9-3.72 2.28 2.28 0 0 1 3.18 0 2.25 2.25 0 0 1-.91 3.72Z" fill="currentcolor"/></svg><svg id="x-circle" xmlns="http://www.w3.org/2000/svg" viewBox="8 8 44 44"><path d="M45.19 14.81a21.48 21.48 0 1 0 0 30.38 21.5 21.5 0 0 0 0-30.38Zm-8.25 24.36-6.56-6.55-6.55 6.55-2.62-2.62L27.76 30l-6.55-6.55 2.62-2.62 6.55 6.55 6.56-6.55 2.62 2.62L33 30l6.56 6.55Z" fill="currentcolor"/></svg><svg id="x" xmlns="http://www.w3.org/2000/svg" viewBox="13 13 34 34"><path fill="currentcolor" d="m46.37 18.31-4.68-4.68L30 25.32 18.31 13.63l-4.68 4.68L25.32 30 13.63 41.69l4.68 4.68L30 34.68l11.69 11.69 4.68-4.68L34.68 30l11.69-11.69z"/></svg><svg id="zoom-in" xmlns="http://www.w3.org/2000/svg" viewBox="9 9 42 42"><path fill="currentcolor" d="M34.9 9.4c-8.7 0-15.7 7-15.7 15.7 0 3.2 1 6.1 2.6 8.6 0 0 .1.1.1.2L9.4 46.4l4.2 4.2 12.5-12.5.4.2c2.4 1.5 5.2 2.4 8.3 2.4 8.7 0 15.7-7 15.7-15.7.1-8.6-7-15.6-15.6-15.6zm0 26.7c-6.1 0-11.1-5-11.1-11.1s5-11.1 11.1-11.1C41 14 46 18.9 46 25c0 6.2-5 11.1-11.1 11.1z"/><path fill="currentcolor" d="M41.4 26.1V24H36v-5.5h-2.2V24h-5.4v2.1h5.4v5.4H36v-5.4z"/></svg><svg id="zoom-out" xmlns="http://www.w3.org/2000/svg" viewBox="9 9 42 42"><path fill="currentcolor" d="M34.9 9.4c-8.7 0-15.7 7-15.7 15.7 0 3.2 1 6.1 2.6 8.6 0 0 .1.1.1.2L9.4 46.4l4.2 4.2 12.5-12.5.4.2c2.4 1.5 5.2 2.4 8.3 2.4 8.7 0 15.7-7 15.7-15.7.1-8.6-7-15.6-15.6-15.6zm0 26.7c-6.1 0-11.1-5-11.1-11.1s5-11.1 11.1-11.1C41 14 46 18.9 46 25c0 6.2-5 11.1-11.1 11.1z"/><path fill="currentcolor" d="M27.9 23.7h14v2.7h-14z"/></svg></svg>