<svg xmlns="http://www.w3.org/2000/svg" viewBox="14 8 32 44"><path fill="currentcolor" opacity=".5" d="M24.29 8.17 14.07 19.91h10.22V8.17z"/><path d="M24.29 8.17v11.74H14.07v31.92h31.86V8.17Zm5.37 32.59c-5.58 0-9.45-3.76-10.78-8.76h1.5c.55 2 1.49 2.47 2.7 3.7a11 11 0 0 1-.23-2.24 5.65 5.65 0 0 1 5.65-5.65 5.74 5.74 0 0 1 5.66 5.75 7.22 7.22 0 0 1-.43 2.44 7.28 7.28 0 0 0 2.17-6h5.22c-.53 5-6.55 10.76-11.46 10.76Z" fill="currentcolor"/><path d="M28.5 29.66a3.64 3.64 0 1 0 3.64 3.63 3.64 3.64 0 0 0-3.64-3.63Z" fill="currentcolor"/></svg>