<svg xmlns="http://www.w3.org/2000/svg" viewBox="19 10 24 39"><path fill="currentcolor" opacity=".75" d="m36.29 44.28.93-.77v-.77l-.93-.77.93-.77v-.78l-.93-.76h-9.73l-.93.76v.78l.93.77-.93.77v.77l.93.77-.93.77v.77l.93.77 1.83.74 1.01 1.3 2.02.27 2.03-.27 1.01-1.3 1.83-.74.93-.77v-.77l-.93-.77z"/><path d="M31 10.69a11.64 11.64 0 0 0-11.1 11.23 11.51 11.51 0 0 0 3.22 8.26 11 11 0 0 1 2 3.17 15.48 15.48 0 0 1 .88 4.17h10.9a14.51 14.51 0 0 1 .86-4.13 11.52 11.52 0 0 1 2-3.23A11.51 11.51 0 0 0 31 10.69Zm7.84 16.43a13.17 13.17 0 0 0-10.95-13.3l.62-.22a8.14 8.14 0 0 1 2-.44 9.43 9.43 0 0 1 1.84 0 9 9 0 0 1 8.07 8.94v.92a9.07 9.07 0 0 1-1.59 4.1Z" fill="currentcolor"/><path d="M40.37 22.1v.92a9 9 0 0 1-1.49 4.1 13.17 13.17 0 0 0-10.95-13.3l.62-.22a8.14 8.14 0 0 1 2-.44 9.43 9.43 0 0 1 1.84 0 9 9 0 0 1 7.98 8.94Z" fill="currentcolor" opacity=".75"/></svg>