<svg xmlns="http://www.w3.org/2000/svg" viewBox="8 11 44 38"><g fill="currentcolor"><g opacity=".75"><path d="M17.4 11.1h25.1v9.6H17.4z"/><path d="M42.6 11.1v9.6H17.4v-9.6h25.2"/></g><path d="M8.5 22.8V42h6l1-6.9.3-1.7h28.5l.3 1.7 1 6.9h6V22.8H8.5zm38.8 5.9c-.8 0-1.5-.7-1.5-1.5s.7-1.5 1.5-1.5 1.5.7 1.5 1.5-.7 1.5-1.5 1.5z"/><path opacity=".75" d="M42.6 35.4H17.4l-2 13.5h29.1l-1.9-13.5zM20 40.9l.4-2.4h19.2L40 41l-20-.1zm-.7 4.8.4-2.5h20.6l.4 2.5H19.3z"/><path opacity=".75" d="M39.6 38.4H20.4l-.4 2.5h20zm.7 4.8H19.7l-.4 2.5h21.4z"/></g></svg>