<svg xmlns="http://www.w3.org/2000/svg" viewBox="9 9 42 42"><path d="M35.78 17.3a4.7 4.7 0 0 0-1.56.32 8.54 8.54 0 0 1 5.4-6.62L39 9.5c-1.87.46-7.28 3.22-7.26 9.17-.13 2.9.84 6 4 6.08A3.65 3.65 0 0 0 39.58 21a3.74 3.74 0 0 0-3.8-3.7Zm10.88 0a4.75 4.75 0 0 0-1.56.32A8.54 8.54 0 0 1 50.5 11l-.58-1.5c-1.87.46-7.28 3.22-7.26 9.17-.13 2.9.84 6 4 6.08a3.65 3.65 0 0 0 3.8-3.75 3.74 3.74 0 0 0-3.8-3.7ZM24.22 42.7a4.7 4.7 0 0 0 1.56-.32 8.54 8.54 0 0 1-5.4 6.62l.62 1.5c1.87-.46 7.28-3.22 7.26-9.17.13-2.9-.84-6-4-6.08A3.65 3.65 0 0 0 20.42 39a3.74 3.74 0 0 0 3.8 3.7Zm-10.88 0a4.75 4.75 0 0 0 1.56-.32A8.54 8.54 0 0 1 9.5 49l.58 1.46c1.87-.46 7.28-3.22 7.26-9.17.13-2.9-.84-6-4-6.08A3.65 3.65 0 0 0 9.54 39a3.74 3.74 0 0 0 3.8 3.7Z" fill="currentcolor"/></svg>