<svg xmlns="http://www.w3.org/2000/svg" viewBox="14 19 33 22"><path fill="currentcolor" d="M27.12 28.33h-9.61v-8.17h-2.73v19.69h2.73v-9.03h9.61v9.03h2.73V20.16h-2.73v8.17zm17.97 2.57a5.16 5.16 0 0 0-2.69-1.4 5 5 0 0 0 2.2-1.4 4.68 4.68 0 0 0 1.09-3.17 4.57 4.57 0 0 0-1.64-3.71 6.91 6.91 0 0 0-4.51-1.34 10.25 10.25 0 0 0-3.33.55 9.64 9.64 0 0 0-2.8 1.5l-.19.15 1.39 1.85.2-.12a10.47 10.47 0 0 1 2.48-1.23 7.87 7.87 0 0 1 2.31-.33 3.75 3.75 0 0 1 2.45.74 2.46 2.46 0 0 1 .88 2 3 3 0 0 1-1.21 2.56 5.61 5.61 0 0 1-3.41.94h-2.17v2.37h2.14c3.53 0 5.24 1.06 5.24 3.25 0 2.45-1.54 3.65-4.73 3.65a11.84 11.84 0 0 1-2.61-.32 12.06 12.06 0 0 1-2.61-.92l-.36-.18V39l.14.06a9.5 9.5 0 0 0 2.53.83 15.59 15.59 0 0 0 2.84.24 9 9 0 0 0 5.56-1.53 5.28 5.28 0 0 0 2-4.42 4.57 4.57 0 0 0-1.19-3.28Z"/></svg>