<svg xmlns="http://www.w3.org/2000/svg" viewBox="10 11 40 33"><path fill="currentcolor" opacity=".5" d="M42.49 15.1v-3.25h-4v3.25H21.51v-3.25h-4v3.25h-6.58v3.64h38.14V15.1h-6.58z"/><path d="m25.61 27.91.15-.06s-.05-.08-.07-.13-.05.13-.08.19Zm-6.17 3.68c-1.61.53-3 1.48-3 2.75V37a16.84 16.84 0 0 0 5.8 1 13.66 13.66 0 0 0 5.81-1v-2.66c0-1.27-1.36-2.22-3-2.75a4.48 4.48 0 0 1-5.67 0Z" fill="currentcolor"/><circle cx="22.27" cy="27.1" r="3.22" fill="currentcolor"/><path d="M10.93 18.65V44h38.14V18.65Zm22.44 9h7.37v3.58h-7.37ZM30 40.59H14.16v-19H30Zm14.81-3.88H33.27v-3.59h11.54Zm1.28-11H33.37v-3.62h12.72Z" fill="currentcolor"/></svg>